<svg xmlns="http://www.w3.org/2000/svg" width="344" height="546"><path fill="#0a1009" d="M290 10c1.946 1.939 3.7 3.938 5.426 6.074 1.414 1.73 2.876 3.222 4.512 4.738C302 23 302 23 302 26h2l.988 1.863 1.325 2.45 1.3 2.425c1.298 2.117 2.604 3.56 4.387 5.262l1.813 2.75c2.134 3.172 4.449 5.914 7.015 8.734C322 51 322 51 322 53l4 2v2h2l2 5h2v3h2c1.125 7.75 1.125 7.75 0 10a134 134 0 0 1-6 3l.105 1.879c.28 9.134-.909 18.705-4.363 27.223-.972 3.796-.152 5.094 1.758 8.46l1.703 3.133L329 122a451 451 0 0 1 3.25 6.938c.48 1.04.96 2.08 1.453 3.152 6.149 13.797 10.158 29.77 10.297 44.91l.148 2.234c.679 13.464-9.225 27.664-17.148 37.766l-3 1-.875 1.75c-1.526 3.052-3.658 4.892-6.125 7.25a2809 2809 0 0 0-3.437 3.5c-8.52 8.5-8.52 8.5-11.563 8.5v2h-3v2c-1.793 1.402-1.793 1.402-4.187 2.938l-2.485 1.605c-1.742 1.09-3.5 2.155-5.265 3.207-2.182 1.21-2.182 1.21-4.063 3.25-1.479.91-2.982 1.782-4.5 2.625l-2.406 1.352C274 259 274 259 272 259v3c-1.119 1.186-2.248 2.364-3.43 3.488-5.28 5.084-9.112 9.224-10.57 16.512l-1 2c.963 4.953 4.087 6.73 7.973 9.45 1.927 1.473 3.29 2.897 4.777 4.8 1.946 2.77 1.946 2.77 4.195 3.7 2.39 1.221 3.505 2.529 5.18 4.613 2.796 3.333 5.764 6.163 9.063 9 2.879 2.524 5.21 4.632 6.937 8.062 2.12 3.816 4.465 5.741 7.785 8.48 2.904 2.633 5.141 5.628 7.45 8.782 1.626 2.206 1.626 2.206 3.843 4.195C316 347 316 347 316 350l3 1c1.227 1.93 1.227 1.93 2.41 4.445l1.31 2.766 1.342 2.914 1.354 2.844c2.316 4.944 4.261 9.714 5.584 15.031l.852 2.992c1.966 7.33 3.63 13.954.96 21.258-1.981 3.007-4.17 5.311-6.812 7.75l-2 2h-3v2c-8.222 6.346-17.587 11.095-28 12a142 142 0 0 0 3 18.438l.54 2.427c.897 4.179.897 4.179 2.46 8.135l-1 2 2 1c.67 1.718.67 1.718 1.254 3.93.215.795.43 1.59.65 2.41l.659 2.535 1.316 4.93.58 2.218c.458 1.675.992 3.33 1.541 4.977l-1 2h2q1.055 4.463 2.063 8.938l.603 2.517c1.19 5.368 2.32 11.239.334 16.545-1.875 1.094-1.875 1.094-4 2l-2.875 2.5c-2.82 2.438-5.493 3.549-9.125 4.5v2a109 109 0 0 1-5.25 3.75c-4.44 3.11-4.44 3.11-7.687 7.375-5.097 7.105-15.807 9.943-24.063 11.875-4.665.638-9.327.919-14.027 1.168l-2.097.119c-19.96 1.114-39.957 1.052-59.942 1.029-5.479-.006-10.957.011-16.436.034-4.272.015-8.543.016-12.814.013q-3.035 0-6.068.015c-2.807.013-5.612.006-8.419-.006l-2.476.023c-6.756-.061-12.019-1.594-17.721-5.395a118 118 0 0 0-7.25-1.5l-2.15-.393c-4.727-.842-9.456-1.48-14.225-2.044-7.39-.93-14.279-2.858-21.375-5.063l-3.781-1C65 530 65 530 63 528c-4.99-2.406-10.295-4.117-15.56-5.812-18.053-5.822-18.053-5.822-20.702-10.34L26 510h-2l.487-2.892c6.207-36.02 6.207-36.02 11.118-72.23C36 432 36 432 37 429v-2.437c0-2.473.404-4.18 1-6.563 1.884-11.555 3.077-22.923 3.125-34.625l.014-2.446c.354-3.77.354-3.77-1.139-6.929a100 100 0 0 1 0-5h-2c-7.948-22.847-7.948-22.847-5-33q.378-2.156.75-4.312c2.157-10.816 6.024-21 11.25-30.688q1.164-2.309 2.313-4.625L49 295h2l.25-1.562C52 291 52 291 54 287.813c2.454-4.194 2.913-8.006 3-12.813l.074-2.34C56.757 262.371 50.664 253.472 44 246v-2l-1.625-.687C38.088 240.943 34.714 238.07 32 234a791 791 0 0 0-5-3c-2.312-2.062-2.312-2.062-4-4v-2l-1.777-.766C12.046 219.138 8.553 208.206 5 199l-1.145-2.879C1.971 191.228.59 187.324 1 182l-1-2a62 62 0 0 1-.125-4.312l-.008-2.301C.01 170.83.46 168.503 1 166l.613-3.418C3.023 154.983 4.727 148.029 8 141l.915-1.999c3.684-8.035 7.478-15.981 11.727-23.735 6.21-11.355 9.467-21.935 10.862-34.864.54-4.986 1.258-9.942 1.996-14.902l.36-2.498C35.512 51.923 37.73 37.415 47 30h2l.223-1.79c1.06-3.013 2.573-3.83 5.215-5.585l2.742-1.824L60 19l2.57-1.645c10.744-6.651 19.622-9.56 32.305-9.48l2.425.015c7.761.079 14.213.565 21.575 3.173C127.568 13.843 135.991 13.36 145 13l2.97-.1c4.898-.165 9.795-.35 14.69-.584l2.395-.11c2.024-.1 2.024-.1 3.945-1.206 2.288-.206 4.581-.366 6.875-.5 4.483-.189 4.483-.189 8.884-.952 3.135-.767 6.29-1.16 9.487-1.599l2.167-.3q3.512-.484 7.024-.961l9.825-1.34 2.494-.34a970 970 0 0 0 15.514-2.262C251.242-.284 272.583-2.977 290 10m6 490 1 3Z"/><path fill="#fbe186" d="M281.938 132.063c9.863 5.097 20.411 7.112 31.375 7l2.533-.014q3.077-.02 6.154-.049c8.16 13.09 12.049 29.681 10 45-3.358 13.498-13.674 24.15-23 34l-2.297 2.457c-12.121 12.577-26.764 23.226-42.015 31.668C254.213 257.971 246.903 266.153 239 275c3.724-1.213 7.378-2.509 11-4q-.68 3.096-1.375 6.188l-.773 3.48C247 284 247 284 245.969 286.406c-1.337 3.578-1.682 7.125-2.094 10.906l-.262 2.245A978 978 0 0 0 243 305h2l.813-2.875C247 299 247 299 250 297l.332 2.387c1.162 7.983 2.745 15.78 4.668 23.613l-1.788-.08a540 540 0 0 0-8.024-.233l-2.815-.126c-2.548-.046-4.869-.035-7.373.439-2.343 2.634-2.893 4.68-4 8l-2.528.136c-26.1.715-26.1.715-51.472 5.864-2.472.124-4.903.19-7.375.188l-2.163-.003c-6.62-.075-12.952-1.02-19.462-2.185-9.124-1.621-18.053-2.382-27.312-2.625l-3.725-.117q-4.482-.14-8.963-.258l-.48-2.902c-2.882-16.734-7.928-31.907-14.865-47.397C92 280 92 280 92 278c4.007 1.655 6.98 4.411 10.125 7.313l1.718 1.579c5.8 5.48 10.53 11.632 15.157 18.108-2.546-5.728-5.61-10.295-9.61-15.117a204 204 0 0 1-4.094-5.077c-4.982-6.385-10.354-12.175-16.109-17.868-1.316-1.314-1.316-1.314-2.66-2.653-5.238-5.176-10.499-10.06-16.433-14.433-2.621-2.318-4.187-4.92-6.094-7.852q-1.382-1.711-2.812-3.383c-6.29-7.363-11.878-14.873-16.876-23.18l-1.529-2.521C40.097 208.338 38.188 204.178 37 199h-2q-1.224-3.592-2.437-7.187l-.698-2.042C29.191 181.827 28.07 174.395 29 166c2-3 2-3 5-5l1.709-1.192c5.072-3.393 9.883-5.145 15.791-6.558l2.434-.629c8.446-2.122 16.572-2.759 25.25-2.797l5.96-.062 3.116-.034c32.59-.416 64.772-4.462 94.95-17.579 4.41-1.816 8.931-3.068 13.54-4.274l2.895-.762A888 888 0 0 1 208 125l2.173-.557c23.788-5.95 50.067-3.79 71.765 7.62"/><path fill="#549a44" d="M286 21c5.842 5.059 10.383 10.94 14.922 17.168 1.96 2.67 3.99 5.26 6.078 7.832l2-1v-3h2c-1.01-2.018-2.16-3.85-3.375-5.75A98 98 0 0 1 302 26h2l.988 1.863 1.325 2.45 1.3 2.425c1.298 2.117 2.604 3.56 4.387 5.262l1.813 2.75c2.134 3.172 4.449 5.914 7.015 8.734C322 51 322 51 322 53l4 2v2h2l2 5h2v3h2c1.125 7.75 1.125 7.75 0 10a134 134 0 0 1-6 3l.105 1.879c.278 9.089-.853 18.737-4.386 27.183-.979 4 .147 5.603 2.156 9.126C329 121.758 329 121.758 329 125c-2.968-3.48-4.962-6.923-7-11l-2-1-.312 1.938L319 117c-7.44 2.48-18.244 2.264-25.5-.812-3.054-1.533-3.367-1.79-4.5-5.188l1.73.48c2.242.514 4.303.722 6.598.836l2.422.127 2.5.12 2.547.13q3.1.158 6.203.307l.406-3.332c.6-3.705 1.587-5.574 3.594-8.668 1.468-4.363 1.37-9.04 1.605-13.6.174-3.015.434-5.518 1.395-8.4-6.876 2.758-12.866 6.309-19 10.438-4.899 3.274-9.804 6.531-14.875 9.535l-2.117 1.262c-2.465.94-3.586.74-6.008-.235-2.097-2.33-3-4.001-4-7l-2-1q.68 2.159 1.375 4.313l.773 2.425c.84 2.49.84 2.49 2.852 5.262 1.856.03 1.856.03 3.75.063 2.172.175 2.172.175 4.25.937 1.78 2.375 3.061 4.865 4.453 7.484 2.93 4.765 6.947 6.716 12.176 8.325 2.507.587 4.796 1.113 7.371 1.191l3-2c2.688-.125 2.688-.125 5 0l.516 1.617c1.919 5.9 4.125 11.646 6.484 17.383-15.79 3.557-30.461-1.266-44.531-8.258-28.384-13.62-62.716-8.825-91.469 1.258q-2.73 1.04-5.457 2.088a255 255 0 0 1-24.696 8.045 548 548 0 0 0-6.052 1.697c-20.055 5.579-39.868 6.605-60.586 6.681-29.082.082-29.082.082-55.209 11.489h-2c-3.886 6.586-2.685 14.657-.879 21.785.873 3.198 1.816 6.37 2.785 9.54C35 197 35 197 35 199h2l1.469 3.078C44.87 215.306 52.485 226.766 62 238l3.063 3.688L67 244l-1 2c-7.294-4.836-14.121-9.756-20.531-15.75-2.61-2.378-5.326-4.56-8.094-6.75-13.114-10.71-21.68-24.529-23.619-41.653-1.534-19.87 4.353-37.697 14.308-54.66 2.017-3.448 3.69-6.788 4.999-10.562l.988-2.824L35 111l.918-2.707A773 773 0 0 0 38 102h2l.212-2.452c4.713-53.42 4.713-53.42 19.038-67.173C72.597 22.017 89.235 17.195 106 19c6.3.927 12.535 2.175 18.759 3.52L127 23l2.416.569c5.291.883 10.693.198 16.022-.131l2.05-.125c13.57-.856 27.033-2.483 40.512-4.25l2.957-.386c10.584-1.39 21.098-2.94 31.572-5.012C243.55 9.64 268.332 6.475 286 21m32 56 1 2Z"/><path fill="#fbe186" d="M246 428c6.324 3.167 12.822 5.766 19.492 8.105L268 437l2.576.755C273 439 273 439 273.903 441.145l.39 2.668.467 2.985.428 3.202.487 3.257c1.18 8.062 2.138 16.15 2.93 24.259.281 3.248.281 3.248.909 5.402.548 2.347.634 4.47.663 6.879l.039 2.872.022 3.081.025 3.183q.02 3.329.032 6.657c.017 3.397.061 6.794.105 10.191q.015 3.234.026 6.469l.053 3.081c-.022 7.019-.022 7.019-2.285 10.237-3.062 1.999-6.286 3.346-9.694 4.62l-2.012.787c-7.723 2.982-14.903 3.56-23.125 4.076l-2.14.135c-21.232 1.287-42.497 1.076-63.758 1.01-4.432-.011-8.864-.01-13.296-.01q-6.433-.001-12.865-.013l-6.11-.006q-4.226-.004-8.451-.022l-2.52.002c-3.576-.02-6.782-.184-10.223-1.147v-2l-3-1c-1.133-2.363-1.133-2.363-2.125-5.312l-1.008-2.926c-1.513-4.82-2.129-9.304-2.394-14.352l-.126-2.263c-.453-8.565-.697-17.135-.91-25.71-.02-.818-.042-1.637-.064-2.48-.35-13.655-.496-27.297-.373-40.957l3.348-.043c20.702-.524 39.408-5.91 58.797-12.879 6.545-2.35 13.137-4.277 19.855-6.078q3.596-1.027 7.188-2.062l3.511-.989c2.054-.59 4.1-1.208 6.133-1.867 12.654-3.946 22.016-3.05 33.168 3.918"/><path fill="#559b44" d="M52 391c3.324 1.108 3.674 1.58 5.531 4.36l1.44 2.113 1.529 2.277c16.307 24.222 16.307 24.222 40.39 38.88 24.52 4.308 45.5-4.374 67.11-14.63q6.745-3.167 13.5-6.312l3.541-1.652a1045 1045 0 0 1 26.397-11.786l3.59-1.556 3.343-1.428 2.935-1.257c2.592-.97 4.947-1.675 7.694-2.009 1.781 1.336 1.781 1.336 3.5 3.375 13.03 13.954 30.786 22.236 49.5 24.625a136 136 0 0 1 3.371 13.93 278 278 0 0 0 3.602 16.078l.516 2.021q1.046 4.074 2.107 8.142c2.098 8.073 3.904 16.065 5.007 24.348.269 2.474.269 2.474 1.397 4.481.084 1.594.107 3.192.098 4.79l-.01 2.85-.026 2.985-.013 3.008q-.018 3.683-.049 7.367l2 1-6 2v2a100 100 0 0 1-5.312 3.938c-3.148 2.2-6.021 4.304-8.688 7.062l-.025-1.69q-.131-8.811-.292-17.622a2250 2250 0 0 1-.105-6.551c-.174-11.892-.532-23.403-2.578-35.137q-.405-2.912-.781-5.828l-.364-2.735a2453 2453 0 0 1-.71-5.421c-.81-6.063-1.873-12.034-3.145-18.016l-2.092-.48c-5.751-1.357-11.065-3.326-16.408-5.832l-1.947-.913c-3.866-1.856-7.47-3.947-11.115-6.212-10.782-5.89-22.655-2.21-33.754 1.007a441 441 0 0 0-16.22 5.25c-4.3 1.465-8.641 2.775-12.991 4.086a219 219 0 0 0-7.477 2.5c-8.373 2.955-16.781 5.46-25.434 7.469l-2.628.652c-9.24 2.034-18.53 1.66-27.934 1.473q.36 11.685.73 23.37.173 5.43.34 10.858c.558 18.915.558 18.915 1.38 37.819.06 1.204.122 2.407.185 3.647.802 7.27 2.621 14.6 7.365 20.306-2.962-.613-4.38-1.254-7-3a118 118 0 0 0-7.25-1.5l-2.15-.393c-4.727-.842-9.456-1.48-14.225-2.044-7.39-.93-14.279-2.858-21.375-5.063l-3.781-1C65 530 65 530 63 528c-4.99-2.406-10.295-4.117-15.56-5.812C29.632 516.446 29.632 516.446 26 511l1.563.938c3.099 1.35 6.097 1.63 9.437 2.062l.288-2.29c1.967-15.589 4.03-31.159 6.275-46.71 2.806-19.505 5.502-38.925 7.007-58.582.395-5.148.892-10.283 1.43-15.418m244 109 1 3Z"/><path fill="#549a44" d="M62 253c7.891 4.747 14.978 10.053 22 16l3.5 2.813c3.633 3.179 5.39 5.637 6.836 10.207a158 158 0 0 0 3.566 9.82c3.456 8.624 6.634 17.14 8.66 26.223l.51 2.251c.74 3.595.975 6.184-.072 9.686l-2.668-2.773-3.52-3.602-1.751-1.828C95.92 318.603 93.43 316.252 89 315c3.12 5.968 7.081 11.081 11.27 16.328L102 334c-1.147 3.441-1.769 3.724-4.687 5.625C91.287 343.963 87.36 349.983 85 357c-.275 2.403-.275 2.403-.187 4.75l.019 2.36c-.035 1.901-.035 1.901 1.168 2.89 3.065.161 5.055-.018 8-1l.184 3.027.254 3.91c.08 1.288.162 2.576.246 3.903-.035 3.02-.035 3.02 1.316 4.16 4.279-.165 6.339-.293 9.324-3.484 3.221-3.029 4.895-3.256 9.239-3.641 4.477-.424 8.43-1.143 12.753-2.398 8.288-2.13 16.556-2.025 25.059-1.977l2.542.006c26.36.136 44.43 6.153 65.083 22.494l-1 3c-2.211 1.1-2.211 1.1-5.16 2.129l-3.309 1.182-3.594 1.252a2540 2540 0 0 0-9.345 3.374c-13.286 4.836-26.256 10.535-39.155 16.313-18.347 8.208-37.826 16.9-58.37 12.059-2.222-.92-4.08-1.962-6.067-3.309l-1.883-1.11C76.778 416.83 65.515 397.79 57 382l-1.363-2.406c-9.295-17.197-14.095-35.033-8.824-54.219A268 268 0 0 1 49 319l.597-2.009c1.974-6.493 5.014-12.159 8.34-18.053C66.312 285.802 66.312 285.802 69 271c-1.033-3.153-2.272-6.1-3.676-9.105-1.334-2.917-2.36-5.839-3.324-8.895"/><path fill="#549944" d="M250 294c4.595 1.423 7.424 4.015 10.71 7.383l1.61 1.615a772 772 0 0 1 3.354 3.395 979 979 0 0 0 5.068 5.115c5.077 5.114 10.031 10.267 14.715 15.748 2.108 2.383 4.382 4.565 6.68 6.764 16.167 15.51 28.024 36.18 29.738 58.918-.289 6.248-2.754 9.626-7.172 13.906-4.268 3.404-8.707 5.974-13.703 8.156l-1.82.805c-10.148 4.192-21.996 3.752-32.118-.368-12.5-5.481-23.328-13.96-33.863-22.515C217.783 380.542 201.318 371.51 182 367l-2.852-.7c-16.473-3.686-33.96-2.95-50.6-.924l-2.415.284-2.129.27c-2.184.076-3.919-.306-6.004-.93q2.37-2.41 4.75-4.812l2.672-2.708c2.112-2.032 4.186-3.798 6.578-5.48-4.71-.512-6.813.912-10.5 3.75l-2.781 2.11L116 360l-2.617 2.008c-2.276 1.903-4.113 3.842-6.008 6.117-2.091 2.508-3.615 4.035-6.375 5.875.723-11.084 7.064-19.594 15-27 3.912-2.695 6.231-3.333 11-3v-2c-9.356.8-15.482 3.48-23 9l-3.062 2.238a482 482 0 0 0-5.723 4.258C93 359 93 359 91 359c.864-7.345 5.492-11.892 10.914-16.457 9.172-6.785 21.187-6.494 32.086-5.543 4.525.71 9.009 1.604 13.5 2.5 17.603 3.442 34.582 3.326 52.333 1.224C234.71 336.955 273.64 339.332 305 356l2 1c-3.323-4.831-7.29-7.37-12.187-10.375-4.65-2.914-9.179-5.761-13.375-9.312-5.035-4.097-10.85-6.723-16.668-9.516l-1.927-.929a190 190 0 0 0-5.222-2.337C255 323 255 323 253.828 320.984l-.578-2.234-.664-2.422L252 314l-1.125-3.5c-1.28-5.121-1.875-10.223-1.875-15.5z"/><path fill="#fbe186" d="M250 271q-.68 3.096-1.375 6.188l-.773 3.48C247 284 247 284 245.969 286.406c-1.337 3.578-1.682 7.125-2.094 10.906l-.262 2.245A978 978 0 0 0 243 305h2l.813-2.875C247 299 247 299 250 297l.332 2.387c1.162 7.983 2.745 15.78 4.668 23.613l-1.788-.08a540 540 0 0 0-8.024-.233l-2.815-.126c-2.548-.046-4.869-.035-7.373.439-2.343 2.634-2.893 4.68-4 8l-2.528.136c-26.1.715-26.1.715-51.472 5.864-2.472.124-4.903.19-7.375.188l-2.163-.003c-6.62-.075-12.952-1.02-19.462-2.185-9.124-1.621-18.053-2.382-27.312-2.625l-3.725-.117q-4.482-.14-8.963-.258l-.48-2.902c-2.882-16.734-7.928-31.907-14.865-47.397C92 280 92 280 92 278c4.007 1.655 6.98 4.411 10.125 7.313l1.718 1.579c5.8 5.48 10.53 11.632 15.157 18.108-1.94-4.167-3.697-7.86-6.75-11.312C110 291 110 291 110 288c4.9 1.526 9.478 3.184 14.09 5.438 5.772 2.643 11.442 4.17 17.66 5.375l3.268.634c31.302 5.613 56.108-2.295 82.399-18.97l2.009-1.27 1.794-1.141c1.883-1.127 3.807-2.108 5.78-3.066v2l2.336-1.312 3.039-1.688 3.023-1.687C248 271 248 271 250 271"/><path fill="#0b0f0a" d="M318 79a807 807 0 0 1-.312 8.5l-.069 2.398c-.309 6.85-1.757 12.308-5.619 18.102l3 1h-3l-1 4q-4.375.08-8.75.125l-2.5.05-2.422.02-2.222.032c-2.405-.26-4.019-1.035-6.106-2.227 3.445 3.976 6.725 5.721 12.031 6.173 2.223.059 4.434.05 6.656.014l2.3-.001c3.252-.026 5.908-.151 9.013-1.186l1-3c3.66 1.22 3.923 2.126 5.688 5.438l1.324 2.433C328 123 328 123 328 125h2q1.19 2.342 2.375 4.688l1.336 2.636c6.457 13.404 10.152 29.81 10.289 44.676l.148 2.234c.679 13.464-9.225 27.664-17.148 37.766l-3 1-.875 1.75c-1.526 3.052-3.658 4.892-6.125 7.25a2809 2809 0 0 0-3.437 3.5c-8.52 8.5-8.52 8.5-11.563 8.5v2h-3v2c-1.793 1.402-1.793 1.402-4.187 2.938l-2.485 1.605c-1.742 1.09-3.5 2.155-5.265 3.207-2.182 1.21-2.182 1.21-4.063 3.25-1.479.91-2.982 1.782-4.5 2.625l-2.406 1.352C274 259 274 259 272 259v3c-1.119 1.186-2.248 2.364-3.43 3.488-5.28 5.084-9.112 9.224-10.57 16.512l-1 2c.963 4.953 4.087 6.73 7.973 9.45 1.927 1.473 3.29 2.897 4.777 4.8 1.946 2.77 1.946 2.77 4.195 3.7 2.39 1.221 3.505 2.529 5.18 4.613 2.796 3.333 5.764 6.163 9.063 9 2.879 2.524 5.21 4.632 6.937 8.062 2.12 3.816 4.465 5.741 7.785 8.48 2.904 2.633 5.141 5.628 7.45 8.782 1.626 2.206 1.626 2.206 3.843 4.195C316 347 316 347 316 350l3 1c1.227 1.93 1.227 1.93 2.41 4.445l1.31 2.766 1.342 2.914 1.354 2.844c2.316 4.944 4.261 9.714 5.584 15.031l.852 2.992c1.966 7.33 3.63 13.954.96 21.258-1.981 3.007-4.17 5.311-6.812 7.75l-2 2h-3v2c-6.213 4.924-12.188 7.847-20 9 1.624-3.247 4.754-3.702 8-5l-1-2h2l.875-2.687L312 411l.75-2.437c1.253-2.57 2.348-3.626 4.375-5.563 3.534-4.11 3.78-7.62 3.527-12.934-1.666-12.706-6.584-26.41-13.652-37.066l-1.484-2.426c-5.78-8.734-13.5-15.744-20.957-23.023-3.432-3.372-6.63-6.859-9.76-10.508-3.484-3.958-7.21-7.679-10.924-11.418l-2.379-2.441-2.316-2.332-2.071-2.1c-2.375-2.156-2.375-2.156-7.109-3.752l-5 10h-2c-.324-8.453.137-16.366 4-24a73 73 0 0 0 1.063-4.125C249 273 249 273 250 271l-1.863 1.129-2.45 1.433-2.425 1.442C241 276 241 276 238 275c2.485-2.743 4.99-5.467 7.5-8.187l2.11-2.33c4.421-4.77 8.712-8.333 14.39-11.483l3.238-1.957 3.075-1.856c23.167-14.205 52.143-35.353 61.945-61.968 2.718-11.79.73-22.947-3.258-34.219l-.91-2.785c-2.1-6.173-4.783-12.011-7.716-17.826-2.067-4.227-2.93-7.769-3.374-12.389l-2.687.938c-7.736 2.48-11.965 1.455-19.313-1.938-4.01-2.318-6.11-5.01-7.875-9.25-.842-2.102-.842-2.102-2.125-3.75-2.082-.579-3.943-.623-6.098-.687C275 105 275 105 272.562 102.375 270.922 98.829 270.31 95.88 270 92l3 1 1.438 3c1.211 3.022 1.211 3.022 3.265 3.895 3.539.162 5.591-1.415 8.61-3.207l1.833-1.081c5.36-3.203 10.56-6.652 15.703-10.192C313.222 79 313.222 79 318 79"/><path fill="#d7b35f" d="M74 252c4.21 1.376 8.353 2.882 12.5 4.438 28.88 10.338 60.632 8.017 89.906.43 13.815-3.334 31.72-4.613 44.594 2.132 7.045 3.447 12.3 5.445 20.063 3.059a215 215 0 0 0 6.3-2.282C250 259 250 259 253 260l-1.285 1.25c-4.467 4.399-8.643 8.985-12.715 13.75l1 2-1.77-.622c-2.787-.472-3.575.048-5.91 1.571l-2.066 1.322-2.129 1.416-2.105 1.358a633 633 0 0 0-9.31 6.166c-23.139 15.27-51.135 16.604-77.527 11.212C128.81 297.038 119.436 292.84 110 288l-1 2-1.357-2.006c-5.268-7.542-11.252-13.966-17.83-20.369l-2.944-2.902a1622 1622 0 0 0-5.409-5.31A933 933 0 0 1 74 252"/><path fill="#050604" d="M73 54c19.803-1.053 34.308 8.52 50.367 18.723 4.119 2.605 8.337 4.976 12.633 7.277v2l2.172.848c2.738 1.115 5.401 2.333 8.078 3.59 4.84 2.219 9.67 3.98 14.75 5.562v6c1.92 1.251 1.92 1.251 3.75.438 3.152-.613 5.306.425 8.25 1.562v1l-2.812.813c-3.948 1.47-5.396 2.728-7.375 6.374L162 110v-6h2v-2c-3.122 1.309-3.122 1.309-5 4a764 764 0 0 1-4.375-.437l-2.46-.247C150 105 150 105 148 104v2h-2l-.625 2.563c-3.55 8.873-11.125 14.102-19.633 17.886-16.086 6.394-35.544 7.363-51.742.551a113 113 0 0 1-5-3c2-1 2-1 4.002-.452l2.557.87c7.062 2.02 13.975 2 21.248 1.918 2.255-.023 4.51-.02 6.765-.014 14.412.393 14.412.393 27.053-5.447l1.977-1.633L134 118c-2.754.487-5.332 1.108-7.996 1.973-7.877 2.494-15.105 3.407-23.379 3.402l-2.771.004c-9.499-.152-19.402-1.458-26.698-8.043-8.64-9.816-11.971-23.083-11.367-35.871L62 77l-2.336-.184-3.039-.254c-.998-.08-1.995-.162-3.023-.246C51 76 51 76 49 75l1-4c11.488-.743 20.242 1.207 31 5 4.513 1.804 4.513 1.804 9 1 2.05.247 4.093.57 6.125.938l3.32.59L102 79v2l3.43.84 4.445 1.097 2.262.553c5.636 1.397 5.636 1.397 7.863 2.51l3-10c-.726-.264-1.451-.529-2.2-.8-2.825-1.21-5.084-2.647-7.612-4.388-4.635-3.002-9.333-5.411-14.376-7.624l-1.977-.878c-6.43-2.75-12.83-4.41-19.835-4.935l-2.875-.227L72 57z"/><path fill="#d5b160" d="M227.941 398.25c2.41.878 3.32 1.829 4.996 3.75 13.07 13.54 30.622 21.646 49.063 24a136 136 0 0 1 3.371 13.93 278 278 0 0 0 3.602 16.078l.516 2.021q1.046 4.074 2.107 8.142c2.098 8.073 3.904 16.065 5.007 24.348.269 2.474.269 2.474 1.397 4.481.084 1.594.107 3.192.098 4.79l-.01 2.85-.026 2.985-.013 3.008q-.018 3.683-.049 7.367l2 1-6 2v2a100 100 0 0 1-5.312 3.938c-3.148 2.2-6.021 4.304-8.688 7.062l-.025-1.69q-.131-8.811-.292-17.622a2250 2250 0 0 1-.105-6.551c-.174-11.892-.532-23.403-2.578-35.137q-.405-2.912-.781-5.828l-.364-2.735a2453 2453 0 0 1-.71-5.421c-.81-6.063-1.873-12.034-3.145-18.016l-2.092-.48c-5.751-1.357-11.065-3.326-16.408-5.832l-1.947-.913c-3.866-1.856-7.47-3.947-11.115-6.212-10.782-5.89-22.655-2.21-33.754 1.007a441 441 0 0 0-16.22 5.25c-4.3 1.465-8.641 2.775-12.991 4.086a219 219 0 0 0-7.477 2.5c-18.45 6.51-36.358 10.625-55.996 9.594v13h-1v-20l8.5-1.187c16.753-2.576 31.247-8.65 46.5-15.813q6.748-3.161 13.5-6.312l3.534-1.652c12.088-5.617 24.33-10.852 36.613-16.027 4.609-1.976 4.609-1.976 6.294-1.759M296 500l1 3Z"/><path fill="#0e0b06" d="M291.125 166.938c5.255 3.19 8.488 3.393 14.45 2.332 3.463-.385 5.6.82 8.425 2.73v5c-5.342 2.671-13.148 2.649-18.867 1.348-3.164-1.227-6.023-2.603-8.847-4.498-5.231-3.48-10.317-5.41-16.349-7.1l-2.603-.773c-19.2-5.574-42.308-5.098-61.334 1.023l-3.66 1.063c-8.654 2.577-17.178 5.562-25.715 8.5l-3.314 1.139c-4.94 1.715-9.835 3.479-14.678 5.45A100 100 0 0 1 147.25 187c-3.575.984-7.144 1.968-10.695 3.035-19.212 5.755-44.233 11.174-63.235 1.617a72 72 0 0 1-4.355-2.761c-2.666-1.209-4.19-.653-6.965.109q-2.999.51-6 1l-1-4c5.07-4.226 8.226-6.524 15.063-6.398 3.124.642 4.726 3.187 6.937 5.398 6.963 1.14 13.955 1.247 21 1.313l3.059.087c15.473.126 30.093-5.2 44.566-10.15q2.374-.802 4.75-1.602c9.706-3.277 19.382-6.645 29.045-10.048 8.11-2.834 16.31-5.28 24.58-7.6l3.094-1.008c28.001-7.901 59.601-4.777 84.031 10.946"/><path fill="#3a722f" d="M134 370c33.764-.853 58.718.414 86 22l-1 3c-2.211 1.1-2.211 1.1-5.16 2.129l-3.309 1.182-3.594 1.252a2540 2540 0 0 0-9.345 3.374c-13.286 4.836-26.256 10.535-39.155 16.313-18.347 8.208-37.826 16.9-58.37 12.059-2.222-.92-4.08-1.962-6.067-3.309l-1.883-1.11C82.625 420.666 75.42 410.19 69 401c3-1 3-1 4.938-.375C76 402 76 402 77.688 404.25 84.752 412.65 98.18 418.545 109 420c17.904.915 43.113.736 57.477-11.445 3.588-3.662 4.742-7.31 5.273-12.305-.128-6.027-3.526-9.186-7.586-13.316-2.01-1.966-2.01-1.966-4.164-2.934v-2c-.568-.182-1.137-.364-1.723-.55-3.69-1.202-7.198-2.413-10.714-4.075-4.509-1.74-8.769-2.095-13.563-2.375z"/><path fill="#539544" d="M302 26h2l.988 1.863 1.325 2.45 1.3 2.425c1.298 2.117 2.604 3.56 4.387 5.262l1.813 2.75c2.134 3.172 4.449 5.914 7.015 8.734C322 51 322 51 322 53l4 2v2h2l2 5h2v3h2c1.125 7.75 1.125 7.75 0 10a134 134 0 0 1-6 3l.105 1.879c.278 9.089-.853 18.737-4.386 27.183-.979 4 .147 5.603 2.156 9.126C329 121.758 329 121.758 329 125c-2.968-3.48-4.962-6.923-7-11l-2-1-.312 1.938L319 117c-7.44 2.48-18.244 2.264-25.5-.812-3.054-1.533-3.367-1.79-4.5-5.188l1.73.48c2.242.514 4.303.722 6.598.836l2.422.127 2.5.12 2.547.13q3.1.158 6.203.307l.406-3.332c.6-3.705 1.587-5.574 3.594-8.668 1.468-4.363 1.37-9.04 1.605-13.6.174-3.015.434-5.518 1.395-8.4-6.876 2.758-12.866 6.309-19 10.438-4.899 3.274-9.804 6.531-14.875 9.535l-2.117 1.262c-2.46.937-3.598.765-6.008-.235-1.25-2.062-1.25-2.062-2-4l7 1 1-2 2-1-4-2c.552-3.727 1.484-6.084 3.688-9.125 5.2-7.513 9.296-15.258 12.312-23.875 1.534-4.115 2.593-6.602 5.75-9.687L304 47c-.045-2.275-.045-2.275-1-4l4 3 2-1v-3h2c-1.01-2.018-2.16-3.85-3.375-5.75A98 98 0 0 1 302 26m16 51 1 2Z"/><path fill="#090d05" d="m242.813 321.5 2.3.02c15.472.492 29.943 9.15 41.672 18.761 2.514 1.951 5.134 3.607 7.84 5.281 4.525 2.826 8.515 5.75 12.375 9.438v2c-2.78-.827-5.45-1.72-8.04-3.035-30.396-15.397-70.498-15.763-103.735-11.686-15.073 1.762-31.356 2.092-46.225-1.279v-4c4.421-2.278 7.175-1.732 12-1 9.444.525 17.794-.154 27.04-2.2 14.14-3.008 28.573-3.073 42.96-2.8l.313-2.812C232 325 232 325 233.074 323.156c3.074-1.845 6.255-1.687 9.738-1.656"/><path fill="#060d04" d="M89 315c5.698.185 8.609 4.089 12.313 7.938l1.955 1.958C108 329.72 108 329.72 108 332l2.177-.048c14.94-.282 29.16.048 43.823 3.048l-1 2-4 1-1 2q-2.094-.216-4.187-.437l-2.356-.247C139 339 139 339 136.742 338.48c-10.673-1.87-23.551-1.855-32.976 3.88-6.4 4.53-9.93 9.407-12.766 16.64 6.668-4.41 13.28-8.85 19.746-13.555 4.005-2.568 7.306-3.712 12.067-3.57l2.394.055L127 342v2l-3.5.563c-8.82 2.27-13.5 9.395-18.055 16.789C103.18 365.502 102 368.214 102 373l1.355-1.355 3.786-3.782a528 528 0 0 0 4.296-4.363c12.644-12.335 12.644-12.335 18.876-12.687L133 351l-14 14q4.063-.213 8.125-.437l2.305-.12c3.245-.182 6.375-.41 9.582-.966 3.908-.624 7.724-.668 11.676-.664l2.394-.002c6.129.055 11.954.718 17.918 2.189v2h8l-1 3-2.532-.016q-4.758-.026-9.516-.039-3.03-.012-6.057-.033c-11.71-.029-23.346.003-34.708 3.088-4.48 1.154-8.8 2.183-13.437 2.438-4.594.689-5.63 2.277-8.75 5.562-3.687.938-3.687.938-7 1-2-2-2-2-2.195-5.258l.07-3.867.055-3.883L94 366l-3 2c-2.562.25-2.562.25-5 0-2-2-2-2-2.5-5.875.205-7.503 3.787-14.207 8.832-19.633 5.376-4.846 5.376-4.846 8.668-6.492-1.74-5.338-5.048-9.084-8.543-13.36C89 318.308 89 318.308 89 315"/><path fill="#569a45" d="m272 425 10 1a136 136 0 0 1 3.371 13.93 278 278 0 0 0 3.602 16.078l.516 2.021q1.046 4.074 2.107 8.142c2.098 8.073 3.904 16.065 5.007 24.348.269 2.474.269 2.474 1.397 4.481.084 1.594.107 3.192.098 4.79l-.01 2.85-.026 2.985-.013 3.008q-.018 3.683-.049 7.367l2 1-6 2v2a100 100 0 0 1-5.312 3.938c-3.148 2.2-6.021 4.304-8.688 7.062l-.025-1.69q-.131-8.811-.292-17.622a2250 2250 0 0 1-.105-6.551c-.174-11.893-.535-23.402-2.578-35.137a651 651 0 0 1-.816-6.074c-.125-.934-.25-1.868-.377-2.83q-.378-2.848-.75-5.696l-.373-2.787-.327-2.475c-.33-2.315-.33-2.315-1.357-5.138a102 102 0 0 1-.316-4.887l-.127-2.842-.12-2.959-.13-2.994q-.158-3.658-.307-7.318m24 75 1 3Z"/><path fill="#568d49" d="M73 54c19.803-1.053 34.308 8.52 50.367 18.723 4.119 2.605 8.337 4.976 12.633 7.277v2l2.172.848c2.738 1.115 5.401 2.333 8.078 3.59 4.84 2.219 9.67 3.98 14.75 5.562v6c1.92 1.251 1.92 1.251 3.75.438 3.152-.613 5.306.425 8.25 1.562v1l-2.812.813c-3.948 1.47-5.396 2.728-7.375 6.374L162 110v-6h2v-2c-3.122 1.309-3.122 1.309-5 4l-2-1 1-2-1.844-.445c-10.496-2.686-20.519-6.643-30.531-10.743-4.027-1.635-8.1-2.897-12.273-4.105-2.715-.816-5.356-1.791-7.997-2.82a221 221 0 0 0-5.93-2.117l-1.924-.665q-2.81-.966-5.622-1.921C89 79 89 79 88 77l14 2v2l3.43.84 4.445 1.097 2.262.553c5.636 1.397 5.636 1.397 7.863 2.51l3-10c-.726-.264-1.451-.529-2.2-.8-2.825-1.21-5.084-2.647-7.612-4.388-4.635-3.002-9.333-5.411-14.376-7.624l-1.977-.878c-6.43-2.75-12.83-4.41-19.835-4.935l-2.875-.227L72 57z"/><path fill="#d9b760" d="M262 478v2c-2.715 1.358-4.884 1.155-7.924 1.19l-3.777.05-2.029.02q-3.163.033-6.328.077-6.752.088-13.505.163c-28.878-.112-28.878-.112-57.562 2.563-7.338 1.151-14.465 1.124-21.875.937v-3a323 323 0 0 1 22-6l2.316-.562c27.457-6.113 62-7.09 88.684 2.562"/><path fill="#3d6e32" d="M216 376q2.963 1.728 5.938 3.438Q224.97 381.214 228 383l1.792 1.054a822 822 0 0 1 5.458 3.259l3.328 1.988L241 391v2h3a164 164 0 0 1 3.355 3.434c11.804 11.242 23.943 12.955 39.56 12.796 6.316-.184 12.014-1.49 18.085-3.23 1.663-.35 3.33-.688 5-1v-2c3.135-1.858 5.375-2.201 9-2-7.063 9.055-16.354 15.751-28.006 17.26-23.346 2.08-40.419-11.228-57.795-25.338-7.71-6.188-15.495-11.505-24.262-16.11l-2.63-1.386c-5.048-2.558-9.763-4.279-15.307-5.426v-1c10.109-2.843 16.676 1.807 25 7"/><path fill="#3e7532" d="M52 391c3.324 1.108 3.674 1.58 5.531 4.36l1.44 2.113 1.529 2.277C77.524 424.793 77.524 424.793 103 439c3.31.349 6.613.504 9.938.625l2.65.117c2.137.094 4.274.177 6.412.258v1h-10v6c-13.005.48-23.628-8.378-33.379-16.02-2.565-2.02-2.565-2.02-5.336-3.554C71 426 71 426 69 423c-2.207-.213-2.207-.213-4.687.063-5.368.194-7.9-1.121-12.313-4.063h-2c-.305-9.446.858-18.642 2-28"/><path fill="#f1f3f2" d="M67 79a879 879 0 0 1 21 4l-.473 2.027C85.39 97.074 86.741 105.545 93 116l1 3c-6.117.52-10.807-.642-16-4-4.428-4.255-6.717-9.069-8.36-14.922-.555-2.098-.555-2.098-1.71-3.86-1.37-3.268-1.14-6.489-1.055-9.968l.027-2.113c.024-1.713.06-3.425.098-5.137"/><path fill="#548649" d="m120.938 337.813 2.65.04c2.138.036 4.275.09 6.412.147l-3 10 5 1a188 188 0 0 1-5.453 3.516c-8.244 5.112-14.775 10.282-20.969 17.75C104 372 104 372 101 374c.723-11.084 7.064-19.594 15-27 3.912-2.695 6.231-3.333 11-3v-2c-9.356.8-15.482 3.48-23 9l-3.062 2.238a482 482 0 0 0-5.723 4.258C93 359 93 359 91 359c.862-7.33 5.462-11.683 10.707-16.387 6.397-4.5 11.608-5.027 19.23-4.8"/><path fill="#3f7932" d="M58.875 460.176c3.137 1.216 4.613 2.791 6.313 5.66 1.533 4.083 1.565 7.898.812 12.164-1.763 3.728-3.328 5.504-6.625 7.938-5.24 1.649-10.65 1.305-15.68-.989L42 484l-1 3q.465-4.312.938-8.625l.263-2.45c.476-4.335 1.027-8.629 1.799-12.925l2 2 2.438-2.562c3.445-2.85 6.104-3.06 10.437-2.262"/><path fill="#131912" d="M325 67c3 2 3 2 5 4h3l-1 3c-3.062 1.188-3.062 1.188-6 2l.14 3.008c.274 8.626-.424 15.59-3.265 23.808-.966 3.516-1.021 6.555-.875 10.184h-2l-.312 1.938L319 117c-7.44 2.48-18.244 2.264-25.5-.812-3.054-1.533-3.367-1.79-4.5-5.188l1.73.48c2.242.514 4.303.722 6.598.836l2.422.127 2.5.12 2.547.13q3.1.158 6.203.307l.406-3.332c.6-3.705 1.587-5.574 3.594-8.668 1.468-4.363 1.37-9.04 1.605-13.6.174-3.015.434-5.518 1.395-8.4l-5 1c2.893-3.125 5.939-5.392 9.512-7.656 1.843-1.665 2.104-2.93 2.488-5.344m-7 10 1 2Z"/><path fill="#0b140a" d="M50 71c11.402-.737 20.333 1.075 31 5l-1 3h-2v2c-7.625-.875-7.625-.875-11-2 .497 13.008 2.08 23.273 10 34 5.036 4.294 10.544 5.225 17 6l1-2 1 3-1 2h19v1c-3.48.059-6.958.094-10.437.125-.974.017-1.948.034-2.952.05-9.816.066-19.88-1.003-27.455-7.84-8.64-9.815-11.971-23.082-11.367-35.87L62 77l-2.336-.184-3.039-.254c-.998-.08-1.995-.162-3.023-.246C51 76 51 76 49 75z"/><path fill="#3f7c32" d="M72.5 434.375C75 436 75 436 76 438c.42 3.772.312 5.51-1.75 8.75-3.368 3.368-5.007 4.185-9.812 4.438C61 451 61 451 58 450a166 166 0 0 0-5.687-.562l-3.012-.254L47 449v6h-1q.172-3.876.375-7.75c.03-.73.062-1.46.094-2.21.206-3.78.446-6.82 2.531-10.04v5l1.645-1.277 2.167-1.66 2.145-1.653c5.287-3.65 11.776-3.3 17.543-1.035"/><path fill="#213022" d="M302 26h2l.988 1.863 1.325 2.45 1.3 2.425c1.298 2.117 2.604 3.56 4.387 5.262l1.813 2.75c2.134 3.172 4.449 5.914 7.015 8.734C322 51 322 51 322 53l4 2v2h2l2 5h2v3h2c1.125 7.75 1.125 7.75 0 10a134 134 0 0 1-6 3l.105 1.879c.278 9.089-.853 18.737-4.386 27.183-.979 4 .147 5.603 2.156 9.126C329 121.758 329 121.758 329 125c-3.769-4.307-7.764-9.21-8.133-15.129.37-4.143 1.438-7.962 2.633-11.933 1.65-5.514 1.886-10.823 1.77-16.544.03-1.988.03-1.988.73-5.394 3.043-1.969 3.043-1.969 6-3-1.047-1.16-1.047-1.16-3-1.937C327 70 327 70 326 68l-2 3-.5-2.875c-1.813-6.398-6.938-11.394-11.395-16.145-2.929-3.148-2.929-3.148-4.105-4.98.125-2.937.125-2.937 1-5h2c-1.01-2.018-2.16-3.85-3.375-5.75A98 98 0 0 1 302 26"/><path fill="#417c36" d="M40 488h1l1 13h8v2l1.813.75c2.6 1.486 3.731 2.63 5.187 5.25.5 2.938.5 2.938 0 6-2.195 2.822-3.938 4.557-7.25 5.938-7.84.178-15.198-2.764-21.75-6.938l-2-3 1.563.938c3.079 1.47 3.079 1.47 9.437 2.062z"/><path fill="#0c0b05" d="M71 250c6.766 4.727 12.559 10.219 18.363 16.047a726 726 0 0 0 4.705 4.66c6.702 6.66 12.454 13.574 17.932 21.293l4 5.5c2.041 2.835 3.372 5.047 4 8.5-3.165-2.967-5.817-6.04-8.437-9.5-7.58-9.621-17.312-17.533-26.563-25.5-2.062-1.815-4.124-3.63-6.176-5.457-1.927-1.695-1.927-1.695-4.699-3.418-3.12-3.12-3.756-6.789-4.125-11.125z"/><path fill="#558d47" d="M299 54h3c-.412 5.223-2.413 9.096-4.844 13.633-1.047 2.144-1.684 4.039-2.156 6.367h-2l-2 9 6 1v3l-3 1-1 2 3 1a606 606 0 0 1-9 6l-2.016 1.324c-2.476 1.535-4.337 2.676-7.296 2.676-2.196-1.3-2.78-2.656-3.688-5l7 1 1-2 2-1-4-2c.552-3.727 1.484-6.084 3.688-9.125 4.39-6.342 8.369-12.974 11-20.25 1.166-3.22 2.259-5.887 4.312-8.625"/><path fill="#091b07" d="M73 54c19.803-1.053 34.308 8.52 50.367 18.723 4.119 2.605 8.337 4.976 12.633 7.277v2l2.172.848c2.738 1.115 5.401 2.333 8.078 3.59 4.84 2.219 9.67 3.98 14.75 5.562v2c-13.626 1.514-28.014-10.416-39.046-17.49C106.338 66.502 90.992 57.761 72 57z"/><path fill="#0d160c" d="M289 12c8.708 4.202 12.17 9.502 16.071 17.999 2.2 4.766 4.766 8.803 7.929 13.001l-2 1v-2h-2l1 4c-4 0-4 0-5.605-1.582l-1.582-2.23a241 241 0 0 0-8.5-10.938A830 830 0 0 1 286 21l2-2c.4-2.323.74-4.657 1-7"/><path fill="#5a9946" d="M37 205c4.156 1.385 5.148 4.246 7.188 7.875C50.738 224.135 58.573 234.105 67 244l-1 2c-7.284-4.83-14.104-9.743-20.508-15.727-3.604-3.288-7.42-6.298-11.242-9.328C32 219 32 219 30 216l2-1 1.813 1c2.783 1.273 4.296.803 7.187 0l1-4-3-1c-1.187-3.062-1.187-3.062-2-6"/><path fill="#bbbdbb" d="M67 79a907 907 0 0 1 21 4l-.465 2.043c-.62 3.426-.87 6.796-1.097 10.27l-.254 3.8L86 102l-.566-1.86c-2.163-3.229-4.68-3.43-8.371-4.39l-3.778-1.016c-3.212-.843-3.212-.843-6.285-.734z"/><path fill="#0e0600" d="m209 263 1 2c-4.909 1.18-9.854 1.423-14.875 1.754l-2.912.197q-3.051.206-6.102.406c-3.073.203-6.145.414-9.216.625-9.98.673-19.889 1.266-29.895 1.018v-2c42.921-10.704 42.921-10.704 62-4"/><path fill="#558d45" d="M268 327c3.626.34 5.92 1.505 8.875 3.5 3.795 2.504 6.615 3.218 11.125 3.5-.959-2.33-.959-2.33-4-4l2-2c9.168 8.696 17.303 17.238 24 28l-1 2-3-1-.902-1.852c-1.418-2.775-3.078-3.802-5.66-5.523l-2.715-1.832L294 346l-4.625-3.062-2.227-1.47c-2.11-1.442-4.127-2.965-6.148-4.53-4.084-3.121-8.453-5.56-13-7.938z"/><path fill="#406739" d="m210 398-2.285.883c-14.106 5.463-28.112 11.025-41.884 17.294-3.647 1.639-7.344 3.157-11.042 4.675q-2.89 1.191-5.766 2.421-3.023 1.29-6.07 2.524c-1.862.758-3.71 1.556-5.531 2.406-10.545 4.379-22.224 3.15-33.422 2.797v-1l24-1 1-2c3.624-1.286 7.264-2.424 10.947-3.525 4.917-1.545 8.962-3.427 13.201-6.371 3.096-1.846 6.346-2.366 9.852-3.104l1-1a100 100 0 0 1 5 0v-2l2.813-.875c3.285-1.012 3.285-1.012 6.187-3.125 3.188-.125 3.188-.125 6 0v-2q1.903-.758 3.813-1.5l2.144-.844C192 402 192 402 195 402v-2q2.903-.794 5.813-1.562l3.269-.88C207 397 207 397 210 398"/><path fill="#f4e49e" d="M135 118a163 163 0 0 1-3.875 3.375l-2.18 1.898c-8.557 5.017-18.973 3.973-28.57 3.852q-2.1-.016-4.2-.027Q91.089 127.062 86 127l-2-5 2.516.063c13.216.29 37.932-7.229 48.484-4.063"/><path fill="#060c01" d="M133 116h3v2l2 1c-15.188 11.42-31.55 13.313-50 12-6.913-1.044-13.114-3.23-19-7 2-1 2-1 4.002-.452l2.557.87c7.062 2.02 13.975 2 21.248 1.918 2.255-.023 4.51-.02 6.765-.014 14.412.393 14.412.393 27.053-5.447l1.977-1.633L134 118z"/><path fill="#e9ebe9" d="M93.438 87.5c3.326.649 4.469 1.884 6.562 4.5 1.539 4.617 1.876 9.054-.125 13.5-2.634 2.107-4.601 1.791-7.875 1.5-3.563-5.345-4.739-8.56-4-15 1.456-3.064 2.11-3.818 5.438-4.5"/><path fill="#416a3a" d="M62 253c7.89 4.746 14.987 10.045 22 16q1.842 1.533 3.688 3.063L90 274l-1 3c-4.062-.598-7.058-1.928-10.625-3.937l-2.852-1.59A109 109 0 0 1 70 268l-1 3q-1.19-2.812-2.375-5.625l-1.336-3.164c-1.22-3.04-2.287-6.093-3.289-9.211"/><path fill="#e7da85" d="m117 529 3 1c.95 1.96.95 1.96 1.688 4.375l.761 2.398C123 539 123 539 123 542q20.294.035 40.586.052 9.43.007 18.857.023c40.29.082 40.29.082 80.557-1.075-2.558 2.558-3.61 2.294-7.168 2.406l-3.256.113-3.541.091-3.674.113c-12.638.365-25.277.478-37.92.515l-3.587.013q-9.334.03-18.668.044c-6.41.011-12.82.046-19.23.085-4.962.026-9.925.035-14.888.038q-3.55.008-7.099.035c-3.282.025-6.563.024-9.846.017l-2.945.039c-6.555-.051-6.555-.051-9.745-2.395-1.511-2.229-2.408-4.163-3.183-6.739l-.734-2.352C117 531 117 531 117 529"/><path fill="#7ea57f" d="m94.875 7.875 2.425.015c7.761.079 14.213.565 21.575 3.173C127.555 13.842 136.002 13.38 145 13l2.904-.116A1242 1242 0 0 0 166 12l-1 2c-8.74 1.675-18.162 1.217-27.047 1.24-2.28.01-4.558.041-6.838.072q-2.208.01-4.416.016l-3.974.028c-4.112-.393-6.995-1.63-10.725-3.356-5.325-1.373-10.658-1.222-16.125-1.25l-2.977-.062c-8.782-.047-16.635 1.497-24.46 5.562L65 18l-2-1c10.604-6.664 19.359-9.204 31.875-9.125"/><path fill="#050802" d="M110 333q6.265-.075 12.53-.11 2.123-.015 4.245-.04c9.247-.112 18.106.41 27.225 2.15l-1 2-4 1-1 2q-2.094-.216-4.187-.437l-2.356-.247C139 339 139 339 136.813 338.5c-4.187-.744-8.383-.87-12.625-1.062l-2.678-.131q-3.255-.158-6.51-.307v-3h-5z"/><path fill="#61983b" d="M141 145c-4.315 2.35-8.454 2.911-13.273 3.594-.925.13-1.85.262-2.802.397-11.823 1.544-23.661 1.476-35.565 1.52-13.412.072-26.175.964-39.36 3.489v-2c6.055-1.367 6.055-1.367 9-2l2.089-.487c6.354-1.4 12.402-1.82 18.895-1.857l3.085-.044c3.227-.046 6.454-.08 9.681-.112 17.808-.049 17.808-.049 35.466-2.068 4.263-.662 8.484-.61 12.784-.432"/><path fill="#638a66" d="M38 423h1c.604 11.188-1.258 21.553-3.312 32.5q-.978 5.352-1.942 10.707l-.474 2.612a415 415 0 0 0-3.022 19.368c-.983 7.404-2.357 14.578-4.25 21.813h-2l.487-2.892c6.207-36.02 6.207-36.02 11.118-72.23C36 432 36 432 37 429v-2.625C37 424 37 424 38 423"/><path fill="#5c8c50" d="m128 355 2 1c-1.747 3.079-3.445 5.56-6 8l3.395-1.512c6.814-2.262 13.824-1.684 20.896-1.397 2.373.096 4.747.166 7.121.231 9.325.296 18.378 1.12 27.588 2.678v2l3.188.438c2.967.437 5.88.94 8.812 1.562v1c-5.4-.466-10.525-1.297-15.812-2.5-16.674-3.648-33.776-3.177-50.64-1.124l-2.415.284-2.129.27C122 366 122 366 118 365z"/><path fill="#558c49" d="M240 328c11.581-1.044 21.297 2.907 31 9v1c-6.697-.549-13.302-1.46-19.937-2.5l-2.549-.396-2.416-.385-2.172-.346C242 334 242 334 239 333z"/><path fill="#568c49" d="M315 120c.182.58.364 1.16.55 1.758 1.19 3.695 2.397 7.136 4.137 10.617C321 135 321 135 321 138h-2l-1-3-2-1c-.625-3.062-.625-3.062-1-6l-1.937 2c-4.075 2.66-7.32 2.542-12.063 2l-3-1v-4h3v2l4-1-1-5c3.858-2.153 6.551-3.393 11-3"/><path fill="#5a8a50" d="M283.941 19.297C289.583 23.964 294.435 29.294 299 35l-1 2c-2-1.375-2-1.375-4-3v-2l-1.84-.25c-2.83-.983-3.317-2.153-4.723-4.75-1.803-3.486-1.803-3.486-5.437-5l-1-2c-3.69-2.64-6.85-3.55-11.312-4.187-1.07-.16-2.138-.318-3.239-.481L264 15v-2l-32 1c15.06-7.53 38.564-4.423 51.941 5.297"/><path fill="#4b7f39" d="m272 425 10 1c1.7 5.33 2.52 10.431 3 16l-1-3h-11z"/><path fill="#162015" d="M68 95c1.776 2.664 2.427 4.206 3.25 7.188 1.83 5.578 4.452 10.875 9.672 13.94 4.24 1.702 8.553 2.4 13.078 2.872l1-2 1 3-1 2h19v1c-3.48.059-6.958.094-10.437.125-.974.017-1.948.034-2.952.05-10.045.068-19.87-1.133-27.666-7.98-4.21-4.615-5.376-7.987-5.382-14.257.11-1.982.245-3.963.437-5.938"/><path fill="#0f240d" d="M299 54h3c-.412 5.223-2.413 9.096-4.844 13.633-1.047 2.144-1.684 4.039-2.156 6.367h-2l-.754 2.633c-1.32 3.565-2.951 6.174-5.183 9.242l-2.09 2.93L283 91h-3c1.555-4.255 3.665-8.097 5.938-12l1.052-1.828a306 306 0 0 1 4.67-7.86c1.214-2.095 2.066-4.026 2.84-6.312 1.185-3.259 2.4-6.201 4.5-9"/><path fill="#18130b" d="M314 172c.188 2.625.188 2.625 0 5-2.9 1.45-5.652 1.39-8.875 1.625-1.235.095-2.47.19-3.742.29-2.8.07-4.765-.033-7.383-.915v-2h3v-3l-2-1c4.839-4.839 13.71-3.526 19 0"/><path fill="#578b4b" d="M314 56c3.626.552 5.042 1.737 7.25 4.625l1.578 1.977c1.72 3.52 1.877 5.525 1.172 9.398-2.275 2.622-4.96 4.483-7.812 6.438l-2.237 1.638C308.47 84 308.47 84 305 84v-2c4.385-3 4.385-3 7-3v-2h2v-2l2-1 1-3h-2l-1 2-1-4h2v-2l3-1 1-5-5-2z"/><path fill="#dccc88" d="m289 111 1.634.494c2.8.599 5.361.618 8.225.604l3.38-.01 3.511-.025 3.559-.014q4.346-.018 8.691-.049c-.875 4.875-.875 4.875-2 6-19.316 1.315-19.316 1.315-26-4z"/><path fill="#57894f" d="M88 318c4.002 1.334 5.069 3.381 7.563 6.75l2.378 3.172c1.794 2.681 3.02 5.043 4.059 8.078l-1.758 1.215C90.083 344.608 84.993 353.644 83 366h-1c-.081-1.75-.14-3.5-.187-5.25l-.106-2.953c.336-3.212 1.216-4.394 3.293-6.797l.875-2.312c1.501-3.586 3.51-6.8 6.125-9.688l3-1 1-2h4l-2-2.375C96 331 96 331 96 329l-1.937-.437C92 328 92 328 91 327a100 100 0 0 1 0-5h-3z"/><path fill="#85a950" d="M113 461h1c1.132 9.857 1.292 19.717 1.5 29.625.203 9.547.422 19.092.914 28.629l.202 3.994c.76 7.43 2.53 14.913 7.384 20.752-2.962-.613-4.38-1.254-7-3a100 100 0 0 1 0-5l-.97-1.897c-1.125-2.296-1.333-3.843-1.44-6.383l-.121-2.548-.102-2.746-.126-2.876c-.132-3.079-.25-6.158-.366-9.237l-.257-6.298c-.568-14.344-.88-28.66-.618-43.015"/><path fill="#c6ccc7" d="M322 80c.271 19.78.271 19.78-3.375 24.5C316 107 316 107 313 107l.621-1.66c2.296-6.755 2.802-13.14 2.973-20.215L317 82c3-2 3-2 5-2"/><path fill="#050d04" d="M89 315c4.505.486 6.535 1.992 9.688 5.188l2.324 2.292c2.191 2.778 2.99 5.152 3.988 8.52l2 3-4 3v-3h-2a106 106 0 0 1-4.437-5.75l-1.198-1.633A1403 1403 0 0 1 92 322l-1.785-2.203C89 318 89 318 89 315m14 16 1 2Z"/><path fill="#58874c" d="M268 327c3.626.34 5.92 1.505 8.875 3.5 3.795 2.504 6.615 3.218 11.125 3.5-.959-2.33-.959-2.33-4-4l2-2 14 14-3 1a91 91 0 0 1-4-4v-2l-5 1 1 3c-3.25-.602-5.137-1.675-7.687-3.75-4.188-3.265-8.617-5.793-13.313-8.25z"/><path fill="#1a1608" d="M96 274c6.643 5.089 11.161 11.22 16 18l2.094 2.86c5.187 7.185 5.187 7.185 5.906 11.14-3.205-3.005-5.897-6.13-8.562-9.625-3.725-4.8-7.92-8.683-12.665-12.444-1.527-1.29-1.527-1.29-3.773-3.931.16-3.328.16-3.328 1-6"/><path fill="#e3e587" d="M69 150h51c-3.816 1.908-5.173 2.26-9.228 2.319l-3.153.06-3.385.035-3.48.059c-3.668.06-7.336.106-11.004.152q-3.73.057-7.46.117-9.145.143-18.29.258v-1h5z"/><path fill="#3c772f" d="M231 386c3.588 1.333 6.836 2.83 10 5v2h3a147 147 0 0 1 3.34 3.426c4.16 3.944 9.21 7.757 14.66 9.574v2c-4.449.393-7.142-.847-11-3v-2l-3-1-1-3a168 168 0 0 0-6-2c-2.375-1.5-2.375-1.5-4-3v-2l-4-2v-2h-2z"/><path fill="#568c49" d="M111 338h19c-3.67 2.752-5.437 3.392-9.715 4.336-3.528 1.025-6.653 2.73-9.89 4.445-2.419 1.231-4.863 2.247-7.395 3.219l1-3 2-1a78 78 0 0 0 2-5h2z"/><path fill="#d5b66d" d="m173.074 259.121 2.072.072q3.271.116 6.542.245l4.439.158q5.437.195 10.873.404v1l-3.523.113c-9.257.36-18.233 1.105-27.336 2.87-4.807.91-9.244 1.387-14.141 1.017-2-1.5-2-1.5-3-3l2.957-.402 3.856-.536 3.832-.527c9.72-1.55 9.72-1.55 13.43-1.414"/><path fill="#588a4c" d="m94.043 18.887 2.214-.017c3.249.007 6.495.059 9.743.13v1H91l-1 3-2.012.078C82.31 23.443 79.255 23.982 75 28a201 201 0 0 1-6 3 510 510 0 0 0-3.75 2.25L62 35l-2-1v-2c6.302-5.553 14.169-8.34 22-11l2.047-.754c3.299-1.044 6.55-1.335 9.996-1.36"/><path fill="#54814a" d="M31 215c3.1 2.066 5.37 4.37 8 7 2.746 2.354 4.563 3.854 8 5v2h2v2h2v2c2.319 1.249 4.294 2.07 6.875 2.688 4.265 1.791 6.386 4.68 9.125 8.312l-1 2c-7.284-4.83-14.104-9.743-20.508-15.727-3.604-3.288-7.42-6.298-11.242-9.328C32 219 32 219 30 216z"/><path fill="#658e69" d="M341 187h2c-2.42 10.888-9.189 21.315-16 30l-3 1-.875 1.75c-1.526 3.052-3.658 4.892-6.125 7.25q-1.91 1.903-3.812 3.813L310 234l-2-1 2.816-2.71c6.86-6.68 13.047-13.16 18.184-21.29l1.535-2.156C334.928 200.643 337.97 193.95 341 187"/><path fill="#709772" d="m334 71 1 2c-1.507 3.013-4.032 3.61-7 5l.105 1.879c.278 9.089-.853 18.737-4.386 27.183-.979 4 .147 5.603 2.156 9.126C329 121.758 329 121.758 329 125c-3.769-4.307-7.764-9.21-8.133-15.129.456-5.095 1.996-9.82 3.465-14.695.678-3.225.792-6.125.828-9.402.113-8.93.113-8.93 2.676-11.907 2.034-1.249 3.888-2.162 6.164-2.867"/><path fill="#518e43" d="m110 353 .875 1.938c.953 2.214.953 2.214 3.125 3.062l-1 3h-3l.246 2.23c-.322 3.629-1.556 4.63-4.183 7.082l-2.215 2.114C102 374 102 374 101 374c.522-7.999 4.086-14.75 9-21"/><path fill="#5f8f55" d="M112 22c1.458-.056 2.916-.094 4.375-.125l2.46-.07c2.728.168 4.895.607 7.524 1.258 7.159 1.503 14.294.65 21.516.062q4.152-.317 8.305-.617l2.014-.15c5.94-.417 11.854-.472 17.806-.358v1c-17.821 3.085-38.093 5.1-56 2l-1-1a236 236 0 0 0-7-1z"/><path fill="#6d993e" d="M200 127c-4.09 2.726-8.537 3.682-13.225 4.969-3.982 1.124-7.797 2.404-11.623 3.988-5.402 2.214-10.897 3.827-16.527 5.356l-2.941.837-2.832.776c-.838.23-1.675.462-2.537.7-2.455.397-3.977.155-6.315-.626l1.817-.503q4.125-1.149 8.245-2.31l2.858-.79c5.233-1.477 10.126-3.162 15.08-5.397 1.408-.503 2.824-.986 4.25-1.437 2.534-.812 5.012-1.666 7.488-2.641 5.73-2.25 10.104-3.387 16.262-2.922"/><path fill="#5b8d50" d="M16 167h1l.012 1.781c.18 20.806.18 20.806 8.988 39.219v2l4 2-1 4c-11.683-13.996-15.028-27.156-14.209-45.19C15 169 15 169 16 167"/><path fill="#48663c" d="m75 420 2.938 2.5 1.937 1.648q2.189 1.91 4.313 3.891c7.028 6.516 13.62 10.817 23.359 11.277l2.558.127 2.645.12 2.691.13q3.28.159 6.559.307v1c-14.044 1.282-24.921 1.984-36.418-7.379C84 432 84 432 84 430h-4v-4h-2c-1.625-1.312-1.625-1.312-3-3z"/><path fill="#e0d68d" d="M92 278c2.829 1.296 4.97 2.692 7.234 4.82l1.739 1.621 1.777 1.684 1.824 1.707q2.218 2.079 4.426 4.168l-2 2-3-2v-2c-2.355 2.14-3.64 4.14-5 7q-1.755-4.185-3.5-8.375l-1.012-2.406-.957-2.305-.888-2.126C92 280 92 280 92 278"/><path fill="#aec76f" d="M279 485h1c.101 6.763.171 13.525.22 20.288q.03 3.451.082 6.902c.048 3.307.071 6.613.089 9.92l.062 3.118c.002 7.144.002 7.144-2.339 10.371-2.165 1.435-4.238 2.66-6.614 3.713l-2.281 1.051c-2.505.72-3.792.492-6.219-.363l1.938-.312L267 539l1-3 7-1 1-3h2z"/><path fill="#e3e189" d="M46 217c1.938.813 1.938.813 4 2l1 3h2l2 6h2c2.296 2.561 3 3.48 3 7h2c4 4.47 4 4.47 4 7l3 1v4l5 1 1 3c-3.997 0-5.104-1.321-8-4l-1.258-2.16c-2.802-4.568-6.365-8.526-9.828-12.606C51.941 227.453 48.836 222.53 46 217"/><path fill="#609647" d="M89 313c3.567.611 6.654 1.644 10 3h2l2-3c2.955 5.277 4.132 11.066 5 17-3.726-3.118-7.27-6.234-10.625-9.75-2.589-2.647-4.725-4.254-8.375-5.25z"/><path fill="#3a5e35" d="M52 391c3.35 1.117 3.793 1.747 5.688 4.563l1.324 1.94L60 399c-1.231 2.463-2.78 3.425-5 5l-2-1v8h-2v6h-1c.506-8.685 1.023-17.352 2-26"/><path fill="#18260d" d="M133 116h3v2l2 1c-6.988 5.255-16.01 11-25 11v-2H88v-1l2.412-.06c3.654-.096 7.309-.205 10.963-.315 1.252-.03 2.503-.062 3.793-.094 13.571-.023 13.571-.023 25.457-5.656l1.977-1.633L134 118z"/><path fill="#678d68" d="M38 46c1.09 3.344.892 5.745.258 9.184l-.542 3.043-.591 3.21c-1.367 7.714-2.57 15.238-2.852 23.075-.305 2.775-1.13 4.952-2.273 7.488l-2-1q1.639-12.734 3.5-25.437l.359-2.507C35.709 50.58 35.709 50.58 38 46"/><path fill="#e2d195" d="m323 196 2 1c-1.455 4.454-3.908 7.638-6.937 11.125l-1.453 1.696c-4.924 5.676-10.205 10.962-15.61 16.179-.625-1.875-.625-1.875-1-4l2-2h3l.75-2.375c1.404-2.948 2.257-3.527 5.25-4.625v-2h3l.813-1.687c1.296-2.525 2.612-4.95 4.187-7.313h2v-4h2z"/><path fill="#050801" d="M286 111h3l1.625 1.813c6.534 6.018 15.947 5.81 24.375 6.187v1c-8.882 3.098-13.407 3.013-22-1-3.44-2.184-5.675-4.025-7-8"/><path fill="#171713" d="M320 101h3a485 485 0 0 1-.375 5.438c-.07 1.009-.14 2.018-.21 3.058-.138.826-.274 1.653-.415 2.504l-2 1c-.652 2.025-.652 2.025-1 4l-2-1 1-4-7 1 1-7 2.313-.25c3.258-.91 3.786-2.072 5.687-4.75"/><path fill="#759b41" d="M141 145c-16.237 9.88-44.687 5.276-63 5v-1l3.301-.06c4.06-.076 8.119-.165 12.178-.257q2.63-.058 5.26-.105c2.528-.046 5.054-.104 7.581-.164l2.359-.035c4.481-.12 8.086-.756 12.321-2.379 6.61-1.13 13.312-1.128 20-1"/><path fill="#669e4f" d="M74 117q2.159.68 4.313 1.375l2.425.773C83 120 83 120 86 122h-2l2 5c-5.868-.524-10.549-1.761-16-4v-1h5z"/><path fill="#5c8b4f" d="M90 60c5.198.564 9.113 2.263 13.688 4.625l2.109 1.07C111.773 68.777 117.433 72.225 123 76c-3.314 1.088-3.836 1.073-7.25-.437L113 74v-2l-2.875.125C107 72 107 72 105 70v-3l-1.676-.379c-2.586-.69-5.02-1.583-7.511-2.558l-2.668-1.028C91 62 91 62 90 60"/><path fill="#3c762f" d="M67 259c2.468 1.152 4.048 2.048 6 4v4h6v4l2.75.75c3.354 1.29 4.927 2.57 7.25 5.25-7.81-1.189-16.215-5.62-21-12-.812-3.312-.812-3.312-1-6"/><path fill="#65973c" d="M238.688 120.938q2.526.008 5.052.013 6.13.017 12.26.049v1l-2.573.028c-17.846.246-34.905 1.205-52.427 4.972l-1-2 3.375-.937c3.42-.886 3.42-.886 5.625-2.063 9.765-1.578 19.83-1.114 29.688-1.062"/><path fill="#c4b67c" d="M324 144c6.573 6.573 8.317 21.601 8.417 30.552-.059 3.16-.194 6.296-.417 9.448h-1l-.078-2.93c-.359-8.236-1.424-14.52-4.922-22.07-1.817-5.27-2.193-9.495-2-15"/><path fill="#010a01" d="M63 77c2.652 2.273 3.45 3.84 3.984 7.273l.395 2.5.371 2.602.418 2.578C68.811 96.211 69.28 99.795 68 104c-5.38-5.38-5.054-14.292-5.062-21.437Q62.96 79.78 63 77"/><path fill="#5a894f" d="M47 352c2 2 2 2 2.125 5.125L49 360h2l.48 2.09c1.653 6.657 3.98 12.063 7.52 17.91 3.103 5.482 3.103 5.482 2.57 8.168L61 390c-4.093-7.905-8.097-15.832-11.5-24.062l-1.469-3.536C46.928 358.763 46.807 355.78 47 352"/><path fill="#040f04" d="M206.063 103.938 209 104c1.283 3.85 1.066 6.947 1 11-4.252-.472-6.373-2.773-9-6 .223-4.02 1.058-4.98 5.063-5.062"/><path fill="#74a147" d="M273 439h1v5h2c2.712 12.461 3.356 24.264 3 37h-1l-.351-2.89q-.648-5.31-1.303-10.617-.282-2.297-.562-4.595-.402-3.303-.811-6.605l-.25-2.074c-.36-2.884-.8-5.452-1.723-8.219a195 195 0 0 1 0-7"/><path fill="#362513" d="M172 263v1l-3.437.375L165 265l-1 2h9v1a244 244 0 0 1-26 1v-2q3.995-1.016 8-2l2.254-.578c5.049-1.23 9.55-1.61 14.746-1.422"/><path fill="#6f9774" d="M210 7v1c-30.333 5.97-30.333 5.97-43 5 2.822-2.822 4.94-2.37 8.875-2.562 3.863-.198 7.399-.42 11.125-1.438 7.707-1.315 15.18-2.27 23-2"/><path fill="#091c07" d="m270 92 3 1 1.438 3c1.22 3.073 1.22 3.073 3.5 3.938 2.216.067 3.956-.261 6.062-.938v3l-2 1 1 2c-5.16.516-5.16.516-8 0-3.765-3.958-4.571-7.644-5-13"/><path fill="#5b8c51" d="m224 15-1 2c-5.844 1.948-9.962 2.078-16 1v2c-3.981 1.327-7.85 1.07-12 1v-3c3.332-.51 6.666-1.006 10-1.5l2.832-.434c5.457-.801 10.653-1.222 16.168-1.066"/><path fill="#57844d" d="m128 355 2 1c-1.747 3.079-3.445 5.56-6 8l1.898-.656 2.477-.844 2.46-.844C133 361 133 361 135 361l1 4-18 1c3.22-3.806 6.402-7.54 10-11"/><path fill="#e5d59b" d="m229 327 1 4-2.484.152c-22.309 1.366-22.309 1.366-44.516 3.848l1-2c9.432-2.933 19.975-2.643 29.781-3.104 2.138-.104 4.274-.218 6.41-.334l3.819-.183c3.102-.083 3.102-.083 4.99-2.379"/><path fill="#3c503d" d="m311 412 3.313 1.063c3.596 1.267 3.596 1.267 6.687-.063v2c-6.213 4.924-12.188 7.847-20 9 1.624-3.247 4.754-3.702 8-5l-1-2h2z"/><path fill="#4e7545" d="M240 328h11v1h-6v3l3.25-.062c2.898.048 5.036.194 7.75 1.062v2l2 1q-3.907-.464-7.812-.937l-2.237-.264c-3.118-.381-5.962-.803-8.951-1.799z"/><path fill="#e8d894" d="M204 156v2l-2.032.61q-4.579 1.38-9.155 2.765l-3.198.96-3.095.938-2.841.857c-2.703.84-2.703.84-5.348 1.97-2.594 1.002-4.574 1.058-7.331.9 1.6-3.2 4.775-3.886 8-5 2.121-.524 4.25-.963 6.39-1.395 4.341-1.007 8.553-2.428 12.79-3.8C201 156 201 156 204 156"/><path fill="#739f47" d="m317 134 2 1v3l3 1c-3.889.914-7.51 1.134-11.5 1.125l-3.344.008A42.3 42.3 0 0 1 299 139v-2l-3-1 21 1z"/><path fill="#3f7f31" d="M67 133c4.245-.333 6.355-.439 9.938 2L79 137l-1 4c-6.367-.367-6.367-.367-9.437-3.437C67 135 67 135 67 133"/><path fill="#4c8f3d" d="m312 125 2 3c-1.437 2-1.437 2-4 4-4.216.586-7.968.344-12-1v-4h3v2z"/><path fill="#0a0401" d="M183 263v3c-3.31 1.655-6.991 1.1-10.625 1.063l-2.43-.014q-2.972-.02-5.945-.049l1-3c6.026-1.071 11.89-1.1 18-1"/><path fill="#549845" d="m127 85 10 2 1 4c-5.228.888-8.019.66-13-1z"/><path fill="#69926c" d="M301 425c-5.75 2-5.75 2-8 2 .647 8.89 2.87 17.372 5 26h-2c-5.556-17.672-5.556-17.672-6-27q2.185-.543 4.375-1.062l2.46-.598C299 424 299 424 301 425"/><path fill="#b3ac59" d="m260 421 12 4c.837 5.024 1.086 9 1 14l-7-2v-2h4v-9l-3.875-.25c-2.18-.14-2.18-.14-4.125-.75z"/><path fill="#3c6233" d="M231 388c2 0 2 0 4.125 1.875C237 392 237 392 237 394c2.532 1.317 5.018 2.397 7.688 3.438L248 399l1 3c1.5 1.667 1.5 1.667 3 3-4.084 0-5.483-1.638-8.687-4.125l-3.215-2.473L237 396q-2.37-1.788-4.75-3.562L229 390z"/><path fill="#6b9871" d="m328 374 2 1a98 98 0 0 1 2.125 7.5l.535 2.207c1.803 7.782 2.761 14.109-1.66 21.293h-3l1.477-2.148c3.418-6.398 1.919-14.118.023-20.852l-.844-2.625C328 378 328 378 328 374"/><path fill="#56834c" d="m88 77 14 2v2l2.555.516 3.32.734 3.305.703C114 84 114 84 115.176 86.065L116 88l-1.635-.549a965 965 0 0 0-12.146-3.986L97.5 81.937l-2.453-.775C93.012 80.498 91.003 79.755 89 79z"/><path fill="#57894e" d="M317 380c4.172 4.172 4.156 6.868 4.188 12.563l.042 3.503C321 399 321 399 319 401c-2.125-.375-2.125-.375-4-1l2-1z"/><path fill="#5c8f51" d="M288 350c6.15 1.074 10.671 2.645 15.957 5.977 2.258 1.322 2.258 1.322 6.043 1.023l1 6-2-4-2.75.625c-3.366.388-4.57.36-7.25-1.625l-1-3-2.187-.312c-3.072-.751-5.215-1.906-7.813-3.688z"/><path fill="#071a05" d="M127 342v2l-3.625.75c-4.17 1.024-6.957 2.687-10.375 5.25v-2l-6 1c5.695-6.606 11.746-7.505 20-7"/><path fill="#0b1f08" d="M69 123c3.106.614 6.21 1.243 9.313 1.875l2.67.527 2.568.528 2.364.476C88 127 88 127 91 129c1.655.385 3.322.728 5 1v1c-9.245.74-19.324-1.723-27-7z"/><path fill="#6c906e" d="M270 300c5.072 1.98 7.634 4.67 11 8.742 2.984 3.37 6.363 6.242 9.766 9.18 2.047 1.904 3.645 3.787 5.234 6.078l-1 2-1.972-1.988q-3.628-3.654-7.263-7.302l-3.14-3.16q-2.256-2.274-4.52-4.542c-.906-.911-1.811-1.823-2.745-2.761-2.343-2.36-2.343-2.36-5.36-4.247z"/><path fill="#56834c" d="m148 104 5 1-1 2h-3l-1.312 3.25c-1.25 2.904-2.526 5.4-4.688 7.75h-2l-1 2c-2.562.625-2.562.625-5 1l1.137-1.25c3.424-3.864 6.23-7.757 8.785-12.246L146 106h2z"/><path fill="#cfc592" d="m289 111 1.647.494c2.727.586 5.204.618 7.994.604l3.242-.01 3.367-.025 3.414-.014q4.168-.018 8.336-.049v3l-3.43-.035-4.445-.028-2.262-.025c-4.061-.119-4.061-.119-7.863 1.088-3.41.297-5.38.359-8.375-1.375L289 113z"/><path fill="#58894c" d="M132 372c-3.374 3.86-7.057 4.37-12 5q-2.625-.019-5.25-.125c-3.743-.105-4.563.005-7.875 2.125L105 381l-2-1c3.823-4.515 6.333-5.682 12.188-6.25 16.725-1.751 16.725-1.751 16.812-1.75"/><path fill="#e7d594" d="M146.832 332.012c2.637 1.202 4.41 1.122 7.293.988 5.527-.119 10.519.699 15.875 2v1c-7.742 1.312-14.315.37-22-1q-3.655-.571-7.312-1.125l-3.301-.508L135 333v-1c8.353-1.91 8.353-1.91 11.832.012"/><path fill="#e5d493" d="m309 168 6 1c1.25 7.625 1.25 7.625-1 11a70 70 0 0 1-8.125.188l-2.285-.042A476 476 0 0 1 298 180c3.404-2.032 6.323-2.369 10.25-2.625l3.266-.227L314 177c-.3-2.464-.3-2.464-1-5-2.476-1.375-2.476-1.375-5-2z"/><path fill="#f0ea90" d="M226 123q6.216-.074 12.433-.11 2.11-.015 4.222-.04c2.033-.025 4.066-.037 6.099-.045l3.697-.032c3.854.247 6.891 1.041 10.549 2.227v2l-7 1v-2c-3.379-1.002-6.563-1.196-10.078-1.316l-3.516-.127-3.656-.12-3.703-.13q-4.524-.159-9.047-.307z"/><path fill="#36301f" d="m94 117 2 3-1 2h19v1c-3.52.059-7.041.094-10.562.125l-3.002.05c-5.563.038-10.184-.304-15.436-2.175v-2h9z"/><path fill="#58874e" d="M276 105c3.125-.625 3.125-.625 7 0 1.752 2.364 3.024 4.851 4.402 7.45 3.488 5.567 9.445 7.858 15.598 9.55-4.48 1.583-7.384.099-11.59-1.691-4.566-2.48-7.563-6.44-9.41-11.309v-3h-6z"/><path fill="#c4b870" d="M132 441c-5.426 1.809-11.331 1.052-17 1l-1 19h-1v-20l7.25-1.125 2.263-.372c3.798-.546 6.276-.738 9.487 1.497"/><path fill="#dfe287" d="m36 159 2 1-1.277 1.504C30.897 168.727 30.817 175.012 31 184h-1c-1.357-5.963-1.718-11.92-1-18 2.375-3.187 2.375-3.187 5-5z"/><path fill="#4c6f4e" d="M41 401h1q.04 4.406.063 8.813l.025 2.525.01 2.432.016 2.237C42 419 42 419 41 422l-3-1c.486-6.848 1.36-13.33 3-20"/><path fill="#26190a" d="M253 259c0 4.052-1.614 5.795-4 9l-3 2 2 2c-5.176 3.223-5.176 3.223-7 4l-3-1z"/><path fill="#53824a" d="M38 102c1.616 2.84 2.058 3.65 1.5 7-1.836 5.595-4.782 10.795-7.5 16-1.221-3.664-.634-4.604.75-8.125A308 308 0 0 0 38 102"/><path fill="#071105" d="m256 105 9 1-1 7c-3.323-1.168-5.834-2.15-8-5z"/><path fill="#517e47" d="M195 19v2c-3.597 1.2-7.06 1.394-10.812 1.625l-2.12.156c-4.19.267-7.96.083-12.068-.781v-1q4.28-.506 8.563-1c.8-.095 1.6-.19 2.423-.29 4.709-.537 9.275-.812 14.014-.71m-23 4 4 1Z"/><path fill="#517045" d="M300 343c4.592 4.067 7.217 8.564 10 14l-4 1-.246-1.797c-.985-2.879-2.346-3.728-4.817-5.453l-2.222-1.578L297 348l3-1z"/><path fill="#533e22" d="M178 261c24.1-.425 24.1-.425 31 2l1 2-11 1 3-1v-2l-24-1z"/><path fill="#d7b971" d="m173.074 259.023 2.072.076c2.181.082 4.361.179 6.542.276l4.439.172q5.437.212 10.873.453v1c-4.354.198-8.708.382-13.062.563l-3.725.17c-5.88.237-11.429.427-17.213-.733 3.77-2.513 5.586-2.16 10.074-1.977"/><path fill="#609452" d="M72 127c4.696.452 9.014 1.238 13.563 2.5 7.113 1.867 14.113 2.21 21.437 2.5v1c-24.661.255-24.661.255-35-5z"/><path fill="#5d9050" d="M264 344c7.67.43 14.659 1.742 22 4v2c-4.005 1.119-6.106.891-9.875-.812A82 82 0 0 0 264 345z"/><path fill="#d2c786" d="M135 118a202 202 0 0 1-4.187 3.625l-2.356 2.04C126 125 126 125 123.387 124.334 121 123 121 123 118 121q3.12-1.048 6.25-2.062l3.516-1.16c3.035-.73 4.391-.897 7.234.222"/><path fill="#408333" d="M53 130h5c.625 2.875.625 2.875 1 6l-2 2c-2.625-.375-2.625-.375-5-1z"/><path fill="#5a8a4e" d="M112 22c6.132-.235 11.61.21 17.594 1.555 3.52.651 6.835.577 10.406.445l1 2c-14.104.194-14.104.194-21-1l-1-1a236 236 0 0 0-7-1z"/><path fill="#4b7543" d="M106 19v1H91l-1 3-1.977.184c-4.71.451-9.365.958-14.023 1.816 7.598-7.598 22.055-6.465 32-6"/><path fill="#e2e78d" d="M218 124v2c-3.08.702-6.165 1.384-9.25 2.063l-2.645.603-2.558.557-2.349.523c-2.35.272-3.96-.03-6.198-.746q3.124-.97 6.25-1.937l3.516-1.09c4.672-1.405 8.324-2.085 13.234-1.973"/><path fill="#f1dc89" d="M84 122h8v1l9 1-1 2c-3.16.414-3.16.414-7.062.625l-3.91.227L86 127z"/><path fill="#f0d788" d="M110 288c3.775 1.09 6.47 1.908 9 5l-2 6c-2.598-2.508-5.037-4.957-7-8z"/><path fill="#618663" d="M44 244c5.543 1.848 8.438 8.145 11.156 13.113 1.488 3.218 1.996 4.432.844 7.887l-1.355-2.633C51.525 256.421 48.488 251.032 44 246z"/><path fill="#5b8451" d="M257 332c5.707.466 9.16 1.938 14 5v1c-10.558-.779-10.558-.779-15-3z"/><path fill="#4c7047" d="m62 253 8 5-1 2h-1c1.302 4.08 1.302 4.08 3 8l-2 3q-1.19-2.812-2.375-5.625l-1.336-3.164c-1.22-3.04-2.287-6.093-3.289-9.211"/><path fill="#ccb984" d="M229 152q6.567-.037 13.135-.055 2.235-.008 4.47-.02c2.14-.013 4.279-.018 6.418-.023l3.904-.016C260 152 260 152 262 153v2l-3.187-.465c-5.918-.74-11.858-.89-17.813-1.097l-3.504-.131q-4.248-.159-8.496-.307z"/><path fill="#59874e" d="m118 67 1 2 3.438.938C126 71 126 71 128 74c3.054 1.213 3.054 1.213 6 2l-1 4a951 951 0 0 1-7.5-4.812l-2.168-1.37-2.05-1.338-1.905-1.221L118 70z"/><path fill="#071b06" d="M39 495c1.306 3.733.76 6.77.125 10.625l-.555 3.477C38 512 38 512 37 514c-3.375.188-3.375.188-7 0l-2-3h8l.402-3.246.535-4.192.264-2.142c.686-5.307.686-5.307 1.799-6.42"/><path fill="#598d4b" d="m51 418 2 1-.48 1.743c-.5 2.166-.719 4.15-.836 6.366l-.127 2.286-.12 2.355-.13 2.402A2020 2020 0 0 0 51 440h-2a709 709 0 0 1-.125-7.062l-.07-3.973c.2-4.083.923-7.115 2.195-10.965"/><path fill="#6a946f" d="M316 350c3 1 3 1 4.259 3.041l1.221 2.65 1.338 2.862 1.37 3.01 1.404 3.021q1.717 3.702 3.408 7.416l-2 2-.687-1.589q-1.556-3.583-3.125-7.161l-1.08-2.5-1.065-2.422-.968-2.222c-1.04-2.192-1.04-2.192-2.703-4.252C316 352 316 352 316 350"/><path fill="#749a77" d="M327 214v3l-3 1-.875 1.75c-1.526 3.052-3.658 4.892-6.125 7.25q-1.91 1.903-3.812 3.813L310 234l-2-1z"/><path fill="#464225" d="m120 127-1 2c-3.062.625-3.062.625-6 1v-2H88v-1c4.583-.197 9.166-.38 13.75-.562l3.945-.17 3.79-.147 3.49-.143c2.588.019 4.579.242 7.025 1.022"/><path fill="#538347" d="m303 58 2 1-2 1zm-3 2 2 2-1.875 3.063c-2.024 3.519-3.12 6.996-4.125 10.937l-1 2h-2v-4h2l.25-2.5c.914-4.268 2.672-7.692 4.75-11.5"/><path fill="#baa169" d="M203 409v2h-3v2c-9.226 4.592-9.226 4.592-15 4 2.617-2.617 5.643-3.716 9-5.125l1.945-.84C200.737 409 200.737 409 203 409"/><path fill="#1d271e" d="M68 95c3.64 5.46 5.507 11.404 5 18-2.446-1.65-3.576-2.471-5-5-.449-4.363-.288-8.63 0-13"/><path fill="#67916b" d="m297 454 2 2-1 2 2 1c.686 1.766.686 1.766 1.29 4.035l.663 2.451.672 2.577.695 2.587A993 993 0 0 1 305 477h-2a774 774 0 0 1-3-7.562l-.867-2.135c-1.807-4.668-2.449-8.3-2.133-13.303"/><path fill="#56874d" d="M265 308c3.68 1.536 5.988 3.782 8.75 6.625l2.422 2.477L278 319l-4 1-2-5h-4l-1-4h-2z"/><path fill="#d2d5d1" d="M301 98h5v8l-5-1z"/><path fill="#59904d" d="M169.75 98.813 173 100v1l-2.812.813c-3.948 1.47-5.396 2.728-7.375 6.374L162 110v-6h2v-2l-2-1c2.856-2.97 3.585-3.09 7.75-2.187"/><path fill="#548449" d="M47 449h2c-.779 12.67-.779 12.67-3 18h-1c-.209-6.406-.158-11.93 2-18"/><path fill="#4a7445" d="m104 362 1 4 4 1q-1.715 1.755-3.437 3.5l-1.934 1.969C102 374 102 374 101 374c.508-4.318 1.197-8.033 3-12"/><path fill="#80a64b" d="M101 303c2.716 2.716 3.24 5.764 4.188 9.375l.576 2.04c.93 3.486 1.614 6.161.236 9.585a840 840 0 0 1-2.2-5.848 407 407 0 0 0-1.987-5.214c-.944-3.41-.954-6.417-.813-9.938"/><path fill="#55834b" d="M63 290c1.536 5.141-.62 8.411-3 13h-2l-1 2c0-4.42.849-5.986 3-9.75l1.688-2.984z"/><path fill="#6e9870" d="M8 204c3.482 4.216 6.349 8.637 9.219 13.281C18.999 220 20.932 222.497 23 225c-6.663-2.87-11.36-9.398-14-16-.687-2.875-.687-2.875-1-5"/><path fill="#e3e4e0" d="M123 104q2.514.428 5 1v5a88 88 0 0 1-5 1c-1-1-1-1-1.125-3.5C122 105 122 105 123 104"/><path fill="#587c5a" d="M112.324 9.277 115 10l2.895.754 2.918.809 2.957.816L126 13v2c-5.536.339-9.003-.687-14-3-2.779-.691-2.779-.691-5-1 3-2 3-2 5.324-1.723"/><path fill="#3e6438" d="m211 386 9 6-1 3c-2.066.73-2.066.73-4.562 1.188l-2.504.48L210 397l5-6-2-1.375-2-1.625z"/><path fill="#55864a" d="M46 329h2l-1 18h-2q-.04-3.375-.062-6.75l-.036-3.797c.078-2.738.27-4.872 1.098-7.453"/><path fill="#538149" d="m55 304 2 4-2 2-.875 3.375c-1.178 3.795-2.28 5.01-5.125 7.625 1.502-5.986 2.942-11.613 6-17"/><path fill="#4b4123" d="M245 285h1q.04 4.438.063 8.875l.025 2.55.01 2.442.016 2.254C246 303 246 303 245 305h-2c-.266-6.95.388-13.235 2-20"/><path fill="#1f140a" d="M172 262q3.688-.08 7.375-.125l2.117-.05c1.837-.018 3.674.072 5.508.175l2 2c-1.187 1.5-1.187 1.5-3 3-2.687.188-2.687.188-5 0l1-3-10-1z"/><path fill="#e7d797" d="m72 180 5 1 1 3 14 1c-2 2-2 2-4.863 2.188-9.175-.5-9.175-.5-12.106-2.598-1.344-1.653-1.344-1.653-3.031-4.59"/><path fill="#272a27" d="M87 85c1.063 3.633 1.38 7.234 1.688 11l.324 3.688C89 102.883 88.716 104.37 87 107c-1.235-3.704-1.146-7.144-1.125-11l-.012-2.195c.006-3.198.119-5.75 1.137-8.805"/><path fill="#2e572e" d="M38 507h1c.125 7.75.125 7.75-1 10-4.813.566-7.245-1.098-11-4l-1-2 1.563.938C30.667 513.29 33.65 513.614 37 514z"/><path fill="#c5c37c" d="M249 297h1c.125 5.75.125 5.75-1 8h-3l-1 3-1-2h-2v-5l1 4h2l.875-2.875C247 299 247 299 249 297"/><path fill="#e4d391" d="M287 236c-3.676 4.01-7.19 6.453-12 9v-3h3l.188-1.812c.812-2.188.812-2.188 3.187-4C284 235 284 235 287 236"/><path fill="#9b9e9a" d="M84 83h4l-.465 2.043c-.62 3.426-.87 6.796-1.097 10.27l-.254 3.8L86 102h-1V89h-2z"/><path fill="#4e7c44" d="m52 45 2 3a125 125 0 0 1-4 6h-2l-1 6c-1.333-3.641-.658-5.669.813-9.187l1.082-2.668C50 46 50 46 52 45"/><path fill="#dddf85" d="m117 529 3 1c.95 1.96.95 1.96 1.688 4.375l.761 2.398C123 539 123 539 123 542l5 1c-1.75.75-1.75.75-4 1-4.53-3.02-5.716-7.96-7-13z"/><path fill="#3e6338" d="M78 411h2l2 3c2.05 1.192 2.05 1.192 4 2v3h3l1 3-3 1a835 835 0 0 1-3.937-4.312l-2.215-2.426C79 414 79 414 78 411"/><path fill="#75a144" d="M30 184c2.11 3.166 2.756 5.512 3.625 9.188.26 1.086.52 2.173.79 3.292.192.832.386 1.663.585 2.52h2l1 4c-3.711-1.237-3.958-2.16-5.687-5.562-2.307-4.799-2.8-8.176-2.313-13.438"/><path fill="#daca89" d="M174 177c-.184 1.89-.184 1.89-1 4-2.285 1.047-2.285 1.047-5.062 1.75l-2.786.734L163 184l-1-3q2.435-1.005 4.875-2l2.742-1.125C172 177 172 177 174 177"/><path fill="#d6c587" d="M324 144c2.172 2.172 2.68 3.5 3.625 6.375.26.77.52 1.542.79 2.336C329 155 329 155 329 159h-3c-1.748-5.244-2.194-9.473-2-15"/><path fill="#508b42" d="M106 344v3l-2 1-.375 1.938C103 352 103 352 100.938 353.25L99 354l-1-4 3-1v-3z"/><path fill="#5e9051" d="M142 340q3.438.172 6.875.375c1.276.07 2.552.14 3.867.21C156 341 156 341 158 343q-3.156.039-6.312.063l-3.551.035C145 343 145 343 142 342z"/><path fill="#5f9252" d="M115 338h15c-3.913 2.935-4.727 3.39-9.25 3.688l-2.703.199L116 342z"/><path fill="#cfc586" d="m251 317 3 1 1 5-17-1v-1l13-1z"/><path fill="#c4a75e" d="M153 263c2.375 1.5 2.375 1.5 4 3-4.41 1.102-8.484 1.077-13 1v-3c3.29-1.097 5.55-1.282 9-1"/><path fill="#77a146" d="M37 205c4.06 1.354 4.642 3.275 6.75 6.938l1.922 3.277L47 218l-1 2c-2-1.75-2-1.75-4-4v-4l-3-1c-1.187-3.062-1.187-3.062-2-6"/><path fill="#dbe085" d="M189 131v3c-6.308 1.647-12.515 3.263-19 4 3.292-1.698 6.652-3.18 10.063-4.625l3.16-1.352C186 131 186 131 189 131"/><path fill="#e4e9e6" d="M316 97h2c1.343 6.469 1.343 6.469-.25 8.938C316 107 316 107 313 107z"/><path fill="#5c9150" d="M43 84h1c.142 7.974.095 14.877-4 22-1.248-3.552-.72-5.76.375-9.312C41.625 92.432 42.511 88.402 43 84"/><path fill="#2c4d29" d="M298 504c1.461 2.923 2.341 4.925 3 8l5-1c-2.312 2.5-2.312 2.5-5 5h-3z"/><path fill="#57884b" d="M64 390c2 2 2 2 2 5l4 1v2l3 1-4 2c-2.743-3.2-4.63-6.005-6-10z"/><path fill="#bdb480" d="m250 271-3 13c-1-4-1-4-1-7l-5-1c6.129-5 6.129-5 9-5"/><path fill="#81a94f" d="M31 160h3v2h-2c-2.715 3.976-2.224 8.139-2.125 12.75l.027 2.402c.024 1.95.06 3.899.098 5.848-2.528-3.792-2.224-6.809-2.125-11.187l.027-2.272c.024-1.847.06-3.694.098-5.541l3-1z"/><path fill="#d1c289" d="M274 158c5.384-.513 7.661.954 12 4 2.728.782 2.728.782 5 1l-1 3-16-7z"/><path fill="#b8bcba" d="M322 80c-.375 2.938-.375 2.938-1 6l-2 1a109 109 0 0 0-1 7h-1a355 355 0 0 1-.187-5.875l-.106-3.305L317 82c3-2 3-2 5-2"/><path fill="#588c4d" d="M290 67h2c-.603 4.507-2.366 7.859-4.562 11.813l-.999 1.81A749 749 0 0 1 284 85h-1c-.35-4.223.439-6.182 2.938-9.562 2.067-2.821 3.441-4.973 4.062-8.438"/><path fill="#416a37" d="M48 435h1c1.13 5.023.78 8.979 0 14h-2v6h-1q.212-3.876.438-7.75l.119-2.21c.204-3.467.528-6.693 1.443-10.04"/><path fill="#6c926d" d="m271 259 1 3-2.062 2c-3.505 3.495-6.71 7.251-9.938 11l-1-2q2.153-2.658 4.313-5.312l2.425-2.989c1.689-2.015 3.358-3.894 5.262-5.699"/><path fill="#dccc8c" d="M106 184c3.258-.293 3.258-.293 7.125-.187l3.883.082L120 184c-5.394 2.793-9.927 3.12-16 3z"/><path fill="#dfe185" d="m137 147-1 2c-4.54 1.419-9.294 1.092-14 1v-2c5.05-1.036 9.874-1.103 15-1"/><path fill="#4e7a45" d="M314 125h2q1.259 2.4 2.5 4.813l1.406 2.707C321 135 321 135 321 138h-2l-1-3-2-1c-.633-2.066-.633-2.066-1.125-4.562l-.508-2.504z"/><path fill="#10290e" d="M286 80c.99 2.673 1.046 3.852.188 6.625C285 89 285 89 283 91h-3c1.45-4.11 3.511-7.433 6-11"/><path fill="#416b3a" d="M176 372q2.625.174 5.25.375c.975.07 1.95.14 2.953.21 2.693.4 4.467 1.05 6.797 2.415l-1 2h-2v-2h-10v-2z"/><path fill="#c0a86f" d="M74 252c6.29 1.609 9.447 4.67 13 10-4.123 0-5.203-1.677-8.187-4.437l-2.731-2.497L74 253z"/><path fill="#668e68" d="M2 184c1.734 3.257 2.99 6.575 4.188 10.063l1.105 3.16C8 200 8 200 7 203a803 803 0 0 1-2.437-5.625l-1.372-3.164C2.037 191.098 1.343 188.298 1 185z"/><path fill="#061a04" d="M171 101c-.54 3.786-2.117 5.554-5 8h-2c.37-2.741.686-4.586 2.375-6.812C168 101 168 101 171 101"/><path fill="#538147" d="m138 79 1 3h5v2l5 2v2c-4.827-1.413-8.716-3.43-13-6l2-1z"/><path fill="#658967" d="M301 425c-5.75 2-5.75 2-8 2l-1 9h-1l-1-10c8.75-2.125 8.75-2.125 11-1"/><path fill="#f3e0a3" d="m229 327 1 4h-24v-1l1.896-.06c2.827-.095 5.653-.205 8.479-.315.985-.03 1.97-.062 2.984-.094l2.852-.117 2.634-.095c2.365-.131 2.365-.131 4.155-2.319"/><path fill="#eddb8c" d="M240 276h6c1.108 3.325.845 5.622 0 9-3-3.75-3-3.75-3-6l-4-1z"/><path fill="#d4c487" d="m199 170-1 3-10 1-1-2a211 211 0 0 1 3.75-1.562l2.11-.88c2.44-.636 3.78-.36 6.14.442"/><path fill="#e6d697" d="M161 171c-2.434 1.623-4.313 2.617-7 3.625l-2.062.79C150 176 150 176 147 176c1-3 1-3 3.063-4.187 3.792-1.05 7.008-.946 10.937-.813"/><path fill="#0b1d09" d="m118 357 2 1-12 12-2-1c3.606-4.59 7.474-8.322 12-12"/><path fill="#4e3f19" d="M111 292c3.998 3.665 6.602 7.111 9 12l-1 2a471 471 0 0 1-4-4.75l-2.25-2.672C111 296 111 296 111 292"/><path fill="#7a964f" d="m59 236 8 8-1 2c-2.498-1.498-4.86-3.016-7-5-.437-2.812-.437-2.812 0-5"/><path fill="#bca167" d="M182 420v3l-12 1c3.4-3.4 7.328-5.557 12-4"/><path fill="#517e45" d="m128 355 2 1c-3.532 6.223-3.532 6.223-6 8l-4-1z"/><path fill="#0c210a" d="m99 337 2 1c-5.966 7.667-5.966 7.667-11 9 1.382-3.21 2.924-5.05 5.625-7.25l1.914-1.578z"/><path fill="#e2d08c" d="m60 183-2 1.313L56 186v3l3 2c-1.666.043-3.334.04-5 0l-1-1c.313-3.5.313-3.5 1-7 2.49-1.245 3.41-.777 6 0"/><path fill="#436b3a" d="M45 61h1v14h-2v5h-1c-.248-6.57.676-12.57 2-19"/><path fill="#426a38" d="M40 488h1c.223 2.228.428 4.457.625 6.688l.352 3.761C42 501.93 41.54 503.925 40 507h-1z"/><path fill="#517e44" d="M285 445c1.724 2.585 2.447 4.038 3.188 6.938l.542 2.027c.303 2.282-.042 3.855-.73 6.035-2.682-5.364-3.315-9.01-3-15"/><path fill="#3c6037" d="m88 423 8 2v2l5 1-1 2c-4.932-.448-8.32-2.86-12-6z"/><path fill="#3e6c38" d="M319 401a367 367 0 0 1-2.812 3.438l-1.583 1.933C313 408 313 408 310 409l2-4h2v-2l-2-1c2.463-1.231 4.28-1.072 7-1"/><path fill="#37672c" d="m56 395 4 4c-1.231 2.463-2.78 3.425-5 5-.81-2.915-1.218-4.461-.062-7.312z"/><path fill="#5b9152" d="M92 374h1l.625 2.875c1.083 3.417 1.083 3.417 4.5 4.5L101 382c-3.088 1.765-4.233 2-8 2v-2l-2-1z"/><path fill="#3c7f2e" d="m310 128-2 4c-3.375.125-3.375.125-7 0l-2-2c3.877-1.193 6.916-2 11-2"/><path fill="#ac9c62" d="M317 112v3l-19-1v-1q3.906-.252 7.813-.5l2.236-.145c2.99-.189 5.955-.355 8.951-.355"/><path fill="#16220c" d="M286 111c3 0 3 0 4.938 1.875.68.701 1.36 1.403 2.062 2.125 2.133 1.235 2.133 1.235 4 2l-4 2c-5.875-4.625-5.875-4.625-7-8"/><path fill="#153211" d="M50 71h15v1l-13 1v2l3 1-6-1z"/><path fill="#000701" d="M51 72h12c-3 3-3 3-5.043 3.293L52 75z"/><path fill="#b2c476" d="M275 536h-2v2c-5.415 3.077-5.415 3.077-8.375 2.688L263 540l1.938-.312L267 539l1-3c2.944-1.178 3.9-1.033 7 0"/><path fill="#375a32" d="M264 413c4.468-.213 7.823.409 12 2v2l3 1c-5.455-.568-9.91-1.946-15-4z"/><path fill="#527647" d="m121 375-2.23.297c-7.638 1.158-7.638 1.158-13.77 5.703l-2-1c2.896-3.644 4.988-5.324 9.563-5.875 3.052-.243 5.5.009 8.437.875"/><path fill="#76a046" d="M256 123c5.778-.236 10.513.132 16 2l-1 2-15-3z"/><path fill="#081d06" d="M206.063 103.938 209 104l-1 3-4 1-1 3-2-2c.605-3.99.86-4.977 5.063-5.062"/><path fill="#528748" d="M44 75h1l1 10-2 1c-.656 2.527-.656 2.527-1 5h-1c-.207-5.789.408-10.43 2-16"/><path fill="#83a750" d="M273 439h1v5h2v13h-1c-1.229-6.068-2.276-11.799-2-18"/><path fill="#a89464" d="M228.063 398.063C230 399 230 399 233 403l-11-2c4-3 4-3 6.063-2.937"/><path fill="#bbad7b" d="m152 335-17-2v-1c7.215-1.65 10.89-1.074 17 3"/><path fill="#e7d999" d="M265 165c5.205.964 9.6 1.877 14 5-2.667 1.333-4.167.671-7 0v-2l-7-1z"/><path fill="#5a9050" d="m134 121 2 2-3 1v2c-2.647 1.46-3.894 2-7 2 1.464-4.392 3.978-4.88 8-7"/><path fill="#44693a" d="M282 427h1c.365 1.748.716 3.498 1.063 5.25l.597 2.953c.324 2.665.195 4.286-.66 6.797v-3h-2c-.762-4.316-1.16-7.744 0-12"/><path fill="#618763" d="m328 374 2 1c1.472 4.824 2.254 8.925 2 14-2.672-4.771-4-9.54-4-15"/><path fill="#241d09" d="M105 284c2.335 2.257 4.187 4.28 6 7l-1 3c-4.923-4.308-4.923-4.308-5.312-7.812z"/><path fill="#bb9e6d" d="M92 264v4l4 2v3a707 707 0 0 1-3.437-2.875l-1.934-1.617C89 267 89 267 88 265c2-1 2-1 4-1"/><path fill="#cec583" d="M67 243h2v4l5 1 1 3c-3.967 0-5.204-1.28-8-4z"/><path fill="#709974" d="m298 241 1 2q-2.119 1.478-4.25 2.938l-2.39 1.652c-2.186 1.306-3.875 1.96-6.36 2.41 3.47-3.904 7.552-6.366 12-9"/><path fill="#5d8f50" d="M120 130c-3.448 2.053-5.317 3.063-9.375 2.688L108 132c3.362-3.362 7.604-3.522 12-2m-10 3 2 1Z"/><path fill="#82a962" d="M81 121h5l-2 1 2 5-6-1z"/><path fill="#132e0f" d="M154 90c3.688.875 3.688.875 7 2v2c-6.625.25-6.625.25-10-2z"/><path fill="#538347" d="m124 86 2 2-1 2h5c-1.5 1.188-1.5 1.188-4 2-2.788-.729-5.377-1.816-8-3v-1z"/><path fill="#4f7c48" d="M295 491c1.904 1.904 2.935 3.334 3.2 6.047-.011 1.985-.1 3.97-.2 5.953-1.904-1.904-2.935-3.334-3.2-6.047.011-1.985.1-3.97.2-5.953"/><path fill="#c3aa73" d="M233 404c3.579 1.652 6.748 3.783 10 6-3 1-3 1-5.562-.187-2.465-1.833-3.366-2.987-4.438-5.813"/><path fill="#172d12" d="M168 364c9.41.964 9.41.964 14 2v1l-3.812.563-2.145.316C174 368 174 368 171 367v-2z"/><path fill="#0b1607" d="M103 326c4.875 3.625 4.875 3.625 6 7-3 0-3 0-4.687-1.25C103 330 103 330 103 326"/><path fill="#55864d" d="M89 313c3.558.61 6.683 1.578 10 3l-1 4-2.812-1.937c-3.03-2.15-3.03-2.15-6.188-3.063z"/><path fill="#517253" d="M308 235a91 91 0 0 1-4 4h-2v2l-3-1c2.443-4.764 2.443-4.764 5.063-5.875C306 234 306 234 308 235"/><path fill="#dce187" d="M58 154v1l-1.898.402-2.477.536-2.46.527c-2.194.458-2.194.458-4.165 1.535v-2l-2-1c4.791-1.63 8.056-2.206 13-1"/><path fill="#173d11" d="m69 123 13 3c-3 2-3 2-5.227 1.61l-2.398-.86-2.414-.828C70 125 70 125 69 123"/><path fill="#bcb589" d="m135 118-6 5-1-3-2-1c3.426-1.618 5.38-2.34 9-1"/><path fill="#5d9453" d="m210 104 4 3c-.75 5.75-.75 5.75-3 8z"/><path fill="#c8aa6d" d="m166 260.813 2.125-.043C170 261 170 261 172 263c-1.623.222-3.249.427-4.875.625l-2.742.352L162 264l-2-2c2.229-1.114 3.53-1.165 6-1.187"/><path fill="#719c42" d="m272 127 8 1v2h2l1 3c-3.791-1.45-7.387-3.152-11-5z"/><path fill="#0f290c" d="M297 120h13l-3 3c-2.48-.145-2.48-.145-5.187-.812l-2.731-.645L297 121z"/><path fill="#0d240a" d="M264 106h1l-1 7c-3.653-1.25-4.78-1.671-7-5l7 2z"/><path fill="#539444" d="M142 91h7l-2 4-5-1z"/><path fill="#416539" d="M200 380c4.194.671 7.403 2.856 11 5l-2 2-4-2v-2l-5-2z"/><path fill="#dbe085" d="M250 307c2.566 3.85 2.551 6.435 3 11l-3-1z"/><path fill="#709649" d="M91 277c2 1 2 1 2.633 2.848l.492 2.214.508 2.223L95 286h-3v-4h-2z"/><path fill="#c7af70" d="m250 259 3 1-7 6-1-4c2.313-1.562 2.313-1.562 5-3"/><path fill="#c8a763" d="M212 262c-.312 1.938-.312 1.938-1 4l-3 1-3-2 4-1-4-2c3.133-1.044 3.99-.934 7 0"/><path fill="#d6c58a" d="m133 191-1 3h-11v-1a909 909 0 0 1 4.313-1l2.425-.562C130 191 130 191 133 191"/><path fill="#497141" d="M22 138h1c.326 4.675-.294 7.167-3 11-.955-2.17-1.144-3.563-.398-5.824.757-1.744 1.574-3.462 2.398-5.176"/><path fill="#5b9150" d="M268 91c2.354 2.55 2.983 3.71 3.188 7.25L271 101l-3-2c-.408-2.712-.133-5.244 0-8"/><path fill="#577758" d="m297 454 2 2-1 2 2 1v7c-2.946-4.419-3.099-6.678-3-12"/><path fill="#3e643a" d="M61 405c1.875.25 1.875.25 4 1 1.25 2.063 1.25 2.063 2 4-2.937-.375-2.937-.375-6-1l-1-2z"/><path fill="#487341" d="M110 353c1 3 1 3-.25 5.625C108 361 108 361 105 362c1.25-3.46 2.675-6.147 5-9"/><path fill="#57894e" d="m254.125 341.438 3.32.308L260 342v1l-14 1v-2c2.836-1.418 4.99-.863 8.125-.562"/><path fill="#597a50" d="M250 294c3.653 1.25 4.78 1.671 7 5l-9-1z"/><path fill="#6c936e" d="M341 187h2c-1.857 7.571-1.857 7.571-5 10 .507-3.719 1.116-6.735 3-10"/><path fill="#648d65" d="M329 125c3.096 3.509 4.742 6.492 6 11l-2 1a301 301 0 0 1-2-3.75l-1.125-2.11C329 129 329 129 329 125"/><path fill="#babf7c" d="M84 122h8l-4 1v4l-3-1c-.687-2.062-.687-2.062-1-4"/><path fill="#3d3b2a" d="M320 107h1l1 6h-2l-1 4-2-1v-5h3z"/><path fill="#4d7343" d="M78 75c6.625-.125 6.625-.125 10 1l1 3-11-3z"/><path fill="#58844b" d="M108 62c4.355 1.161 6.646 2.077 9 6-6.573-1.899-6.573-1.899-9-5z"/><path fill="#638b68" d="m47 30 2 1q-1.434 1.939-2.875 3.875l-1.617 2.18C43 39 43 39 41 41c.373-5.35 1.996-7.51 6-11"/><path fill="#497842" d="M289 460c2.566 3.85 2.551 6.435 3 11h-2c-.575-3.735-1-7.213-1-11"/><path fill="#3b5e35" d="M86 431c3.366 1.443 5.51 3.333 8 6-2.782-.376-4.588-.673-6.812-2.437C86 433 86 433 86 431"/><path fill="#0c2509" d="M130.063 350.938 133 351c-1.312 2-1.312 2-3 4h-3l-1-3c1-1 1-1 4.063-1.062"/><path fill="#528048" d="m98 320 6 1v4l2 1c-3 0-3 0-4.387-1.312z"/><path fill="#e7d293" d="m133.285 177.902 2.778.036 2.785.027L141 178c-3.013 1.564-5.59 2.641-9 3l-2-2c1-1 1-1 3.285-1.098"/><path fill="#60983d" d="M27 169h1v10l-2-1c-.75-3.437-.75-3.437-1-7z"/><path fill="#d9e087" d="M218 124v2c-6.625 1.25-6.625 1.25-10-1 3.38-1.04 6.478-1.08 10-1"/><path fill="#c6af77" d="m260 421 11 4c-3.988 1.33-6.117.438-10-1z"/><path fill="#3c5f35" d="M252 406c3.344.557 6.033 1.352 9 3v2c-3.775-1.09-6.47-1.908-9-5"/><path fill="#4b7d3e" d="m129 339-1 5-1-2h-7c3.072-2.73 4.904-3.341 9-3"/><path fill="#09170a" d="m51 295 2 1-4 8h-2c1.199-3.083 2.477-6.063 4-9"/><path fill="#bca469" d="m243 266 3 1-5 6-2-1v-2h3z"/><path fill="#476f3b" d="M67 260h1l.938 2.875c.936 2.986.936 2.986 2.062 5.125l-2 3-3-10z"/><path fill="#e6d592" d="M266 247c2.063.438 2.063.438 4 1a91 91 0 0 1-4 4h-2c.875-3.875.875-3.875 2-5"/><path fill="#60845f" d="M331 206c1 3 1 3-.25 5.625C329 214 329 214 326 215c1.498-3.112 3.2-6.053 5-9"/><path fill="#09150a" d="m11 208 4 1 1 7c-2.252-2.688-3.882-4.646-5-8"/><path fill="#f6e293" d="M150 188c-1.625 1.563-1.625 1.563-4 3-3.25-.312-3.25-.312-6-1 6.27-3.243 6.27-3.243 10-2"/><path fill="#e0cf94" d="M71 179v1l-11 2 1-3c3.694-1.231 6.206-.644 10 0"/><path fill="#78a043" d="m290 134 8 1 1 3c-3.375-.312-3.375-.312-7-1z"/><path fill="#e8eae7" d="m69 93 3 1-1 9h-1z"/><path fill="#456345" d="M33 81h1c-.114 1.46-.242 2.917-.375 4.375-.07.812-.14 1.624-.21 2.46C33 90 33 90 31 92c-.625-1.875-.625-1.875-1-4l2-2c.648-2.57.648-2.57 1-5"/><path fill="#0c1e0b" d="M277 15h4v2l5 1-1 3a809 809 0 0 1-4-2.437l-2.25-1.372L277 16z"/><path fill="#122b0f" d="M242 11v1l-12 1c2.328-4.656 7.777-2.623 12-2"/><path fill="#c7ad6f" d="M139 436h7l-1 2c-2.322.407-4.657.744-7 1z"/><path fill="#1b3119" d="m91 363 1 2h3l-1 4v-3l-3 2c-2.687.125-2.687.125-5 0l4-1z"/><path fill="#e0ce91" d="M112 292c1.875.25 1.875.25 4 1 1.25 2.063 1.25 2.063 2 4l-2 2z"/><path fill="#48723e" d="M70 272h1v10h-3z"/><path fill="#d8c58b" d="m297 226 3 1-7 5-1-3c2.313-1.562 2.313-1.562 5-3"/><path fill="#7a9f48" d="M51 227c3.688 1.23 4.724 2.939 7 6l-1 2c-4.687-3.613-4.687-3.613-6-5z"/><path fill="#6d9670" d="M327 214v3l-3 1c-1.209 2-1.209 2-2 4l-2-1c4.75-5.875 4.75-5.875 7-7"/><path fill="#281f10" d="m317 208 1 4-5 4-2-1z"/><path fill="#517f47" d="m24 209 6 2v5c-4.875-4.75-4.875-4.75-6-7"/><path fill="#679155" d="m74 117 9 3v1c-5.625.25-5.625.25-9-2z"/><path fill="#4d7f42" d="M262 105h4c.688 3.313.688 3.313 1 7l-3 3 1-9z"/><path fill="#5a8a4f" d="m256 108 8 5-4 2c-2-1.812-2-1.812-4-4z"/><path fill="#051604" d="M290 76c.688 1.75.688 1.75 1 4-1.312 2.25-1.312 2.25-3 4h-2c1.125-2.972 2.223-5.334 4-8"/><path fill="#061905" d="M295 66c.625 1.875.625 1.875 1 4l-2 2h-2c.375-2.437.375-2.437 1-5z"/><path fill="#69aa74"/><path fill="#6ca673"/></svg>